<?xml version="1.0" encoding="utf-8"?>
<!-- Generator: Adobe Illustrator 26.0.3, SVG Export Plug-In . SVG Version: 6.00 Build 0)  -->
<svg version="1.1" id="Слой_1" xmlns="http://www.w3.org/2000/svg" xmlns:xlink="http://www.w3.org/1999/xlink" x="0px" y="0px"
	 viewBox="0 0 446.4 100" style="enable-background:new 0 0 446.4 100;" xml:space="preserve">
<style type="text/css">
	.st0{fill:#111827;}
	.st1{fill:#FFFFFF;}
</style>
<g>
	<g>
		<g>
			<g>
				<g>
					<g>
						<path class="st0" d="M42.4,54.1h11l16.5-16.9L53.4,20.3H20.5L9.8,9h49.1l27.4,28.2L58.8,65.4H42.4V54.1z M36.9,65.4V26H23.2
							v39.4H36.9z"/>
						<path class="st0" d="M146.7,20.4L136.2,9.1h40.6L193.2,26l-8.2,8.4h-16.4l8.2-8.4l-5.5-5.6L146.7,20.4z M163.1,65.4h-13.7V26
							h13.7V65.4z M168.6,40.1v11.3h11l13.7,14.1h16.4L185,40.1H168.6z"/>
						<path class="st0" d="M196,65.5V9.1h13.7v56.4H196z M220.7,31.7l21.9-22.5H259l-27.4,28.2L259,65.5h-16.4l-21.9-22.6h-5.5V31.6
							L220.7,31.7z"/>
						<path class="st0" d="M102.7,20.3H86.3L75.6,9h32.6L163,65.4h-16.4L102.7,20.3z M89,26v39.4h13.7V51.3h24.7l-11-11.3h-13.7
							V25.9L89,26z"/>
					</g>
					<g>
						<path class="st1" d="M283.1,54.1h11l16.5-16.9l-16.4-16.9h-32.9L250.5,9h49.1L327,37.2l-27.4,28.2h-16.4L283.1,54.1z
							 M277.7,65.4V26H264v39.4H277.7z"/>
						<path class="st1" d="M327,20.3L316.5,9h76.4l-11,11.3H327z M329.7,65.4H379l-11-11.3h-24.7V42.8H357l11-11.3h-24.7v-5.6h-13.7
							L329.7,65.4z"/>
						<path class="st1" d="M395.6,9.1v25.4l24.7-25.3h16.4l-54.9,56.3V9.1H395.6z"/>
					</g>
				</g>
				<polygon class="st1" points="436.3,32.4 436.3,65.9 403.8,65.9 413.6,55.7 426.4,55.7 426.4,42.6 				"/>
			</g>
		</g>
		<g>
			<path class="st0" d="M148.1,79.2v11.4h-1.8V77.3h8.3c1,0,1.9,0.4,2.6,1.1c0.7,0.7,1.1,1.6,1.1,2.7s-0.4,1.9-1.1,2.7
				c-0.7,0.7-1.6,1.1-2.6,1.1h-1.5l5.5,5.7H156l-7.4-7.6h5.9c0.5,0,0.9-0.2,1.3-0.6c0.4-0.4,0.5-0.8,0.5-1.3s-0.2-1-0.5-1.3
				c-0.4-0.4-0.8-0.6-1.3-0.6C154.5,79.2,148.1,79.2,148.1,79.2z"/>
			<path class="st0" d="M170.9,77.3v1.9h-9.2v9.5h9.2v1.9h-11.1V77.3H170.9z M170.9,84.8h-7.4v-1.9h7.4V84.8z"/>
			<path class="st0" d="M174.6,79.2v11.4h-1.8V77.3h11.1v1.9C183.9,79.2,174.6,79.2,174.6,79.2z M183.8,84.8h-7.4v-1.9h7.4V84.8z"/>
			<path class="st0" d="M185.7,77.3h1.8v11.4h9.2v1.9h-11.1V77.3H185.7z"/>
			<path class="st0" d="M209.3,77.3v1.9h-9.2v9.5h9.2v1.9h-11.1V77.3H209.3z M209.3,84.8h-7.4v-1.9h7.4V84.8z"/>
			<path class="st0" d="M217.1,77.3h5.5v1.9h-5.5c-1.3,0-2.4,0.5-3.3,1.4c-0.9,0.9-1.3,2-1.3,3.3s0.4,2.4,1.3,3.3
				c0.9,0.9,2,1.4,3.3,1.4h5.5v1.9h-5.5c-1.8,0-3.3-0.6-4.6-1.9s-1.9-2.9-1.9-4.7c0-1.8,0.6-3.4,1.9-4.7
				C213.8,77.9,215.3,77.3,217.1,77.3z"/>
			<path class="st0" d="M235.5,79.2h-11.1v-1.9h11.1V79.2z M230.9,90.5h-1.8V81h1.8V90.5z"/>
			<path class="st0" d="M239.2,90.5h-1.8v-1.9h1.8V90.5z"/>
			<path class="st0" d="M252.2,77.3h5.5v1.9h-5.5c-1.3,0-2.4,0.5-3.3,1.4c-0.9,0.9-1.4,2-1.4,3.3s0.4,2.4,1.4,3.3
				c0.9,0.9,2,1.4,3.3,1.4h3.7v-3.8h-3.7v-1.9h5.5v7.6h-5.5c-1.8,0-3.3-0.6-4.6-1.9s-1.9-2.9-1.9-4.7c0-1.8,0.6-3.4,1.9-4.7
				C248.9,77.9,250.4,77.3,252.2,77.3z"/>
			<path class="st0" d="M261.7,88.6h6.2v1.9h-9.1l6.8-14.4l6.8,14.4h-2.1l-4.8-10.1L261.7,88.6z"/>
			<path class="st0" d="M275.2,80.1v10.4h-1.8V77.3h1.8l4.6,4.7l4.6-4.7h1.8v13.3h-1.8V80.1l-4.6,4.7L275.2,80.1z"/>
			<path class="st0" d="M290,90.5h-1.8V77.3h1.8V90.5z"/>
			<path class="st0" d="M293.7,79.2v11.4h-1.8V77.3H303v1.9C303,79.2,293.7,79.2,293.7,79.2z M302.9,84.8h-7.4v-1.9h7.4V84.8z"/>
			<path class="st0" d="M309.3,84.2l-5.8-7h2.4l4.3,5.2l4.3-5.2h2.4l-5.8,7v6.3h-1.8V84.2z"/>
			<path class="st0" d="M319.9,90.5H318v-1.9h1.8v1.9H319.9z"/>
			<path class="st0" d="M326.4,77.3h8.3c1,0,1.9,0.4,2.6,1.1s1.1,1.6,1.1,2.7s-0.4,1.9-1.1,2.7c-0.7,0.7-1.6,1.1-2.6,1.1h-6.4v5.7
				h-1.8V77.3H326.4z M328.2,79.2V83h6.4c0.5,0,0.9-0.2,1.3-0.6s0.5-0.8,0.5-1.3s-0.2-1-0.5-1.3c-0.4-0.4-0.8-0.6-1.3-0.6H328.2z"/>
			<path class="st0" d="M341.7,79.2v11.4h-1.8V77.3h8.3c1,0,1.9,0.4,2.6,1.1s1.1,1.6,1.1,2.7s-0.4,1.9-1.1,2.7
				c-0.7,0.7-1.6,1.1-2.6,1.1h-1.5l5.5,5.7h-2.6l-7.4-7.6h5.9c0.5,0,0.9-0.2,1.3-0.6s0.5-0.8,0.5-1.3s-0.2-1-0.5-1.3
				c-0.4-0.4-0.8-0.6-1.3-0.6C348.1,79.2,341.7,79.2,341.7,79.2z"/>
			<path class="st0" d="M359.7,91c-1.9,0-3.5-0.7-4.9-2.1c-1.3-1.4-2-3.1-2-5c0-2,0.7-3.6,2-5s3-2.1,4.9-2.1s3.5,0.7,4.9,2.1
				c1.3,1.4,2,3.1,2,5c0,2-0.7,3.6-2,5C363.3,90.3,361.6,91,359.7,91z M359.7,89.1c1.4,0,2.6-0.5,3.6-1.5s1.5-2.2,1.5-3.7
				s-0.5-2.7-1.5-3.7s-2.2-1.5-3.6-1.5s-2.6,0.5-3.6,1.5s-1.5,2.2-1.5,3.7s0.5,2.7,1.5,3.7S358.3,89.1,359.7,89.1z"/>
			<path class="st0" d="M374.5,77.3h5.5v1.9h-5.5c-1.3,0-2.4,0.5-3.3,1.4s-1.4,2-1.4,3.3s0.5,2.4,1.4,3.3s2,1.4,3.3,1.4h3.7v-3.8
				h-3.7v-1.9h5.5v7.6h-5.5c-1.8,0-3.3-0.6-4.6-1.9c-1.3-1.3-1.9-2.9-1.9-4.7c0-1.8,0.6-3.4,1.9-4.7
				C371.2,77.9,372.7,77.3,374.5,77.3z"/>
			<path class="st0" d="M383.7,79.2v11.4h-1.8V77.3h8.3c1,0,1.9,0.4,2.6,1.1s1.1,1.6,1.1,2.7s-0.4,1.9-1.1,2.7
				c-0.7,0.7-1.6,1.1-2.6,1.1h-1.5l5.5,5.7h-2.6l-7.4-7.6h5.9c0.5,0,0.9-0.2,1.3-0.6s0.5-0.8,0.5-1.3s-0.2-1-0.5-1.3
				c-0.4-0.4-0.8-0.6-1.3-0.6C390.1,79.2,383.7,79.2,383.7,79.2z"/>
			<path class="st0" d="M406.5,77.3v1.9h-9.2v9.5h9.2v1.9h-11.1V77.3H406.5z M406.5,84.8h-7.4v-1.9h7.4V84.8z"/>
			<path class="st0" d="M411.5,77.3h8.3v1.9h-8.3c-0.5,0-0.9,0.2-1.3,0.6s-0.5,0.8-0.5,1.3s0.2,1,0.5,1.3c0.4,0.4,0.8,0.6,1.3,0.6
				h4.6c1,0,1.9,0.4,2.6,1.1s1.1,1.6,1.1,2.7c0,1-0.4,1.9-1.1,2.7c-0.7,0.7-1.6,1.1-2.6,1.1h-8.3v-1.9h8.3c0.5,0,0.9-0.2,1.3-0.6
				s0.5-0.8,0.5-1.3s-0.2-1-0.5-1.3c-0.4-0.4-0.8-0.6-1.3-0.6h-4.6c-1,0-1.9-0.4-2.6-1.1s-1.1-1.6-1.1-2.7s0.4-1.9,1.1-2.7
				C409.6,77.6,410.5,77.3,411.5,77.3z"/>
			<path class="st0" d="M424.6,77.3h8.3v1.9h-8.3c-0.5,0-0.9,0.2-1.3,0.6s-0.5,0.8-0.5,1.3s0.2,1,0.5,1.3c0.4,0.4,0.8,0.6,1.3,0.6
				h4.6c1,0,1.9,0.4,2.6,1.1s1.1,1.6,1.1,2.7c0,1-0.4,1.9-1.1,2.7c-0.7,0.7-1.6,1.1-2.6,1.1h-8.3v-1.9h8.3c0.5,0,0.9-0.2,1.3-0.6
				s0.5-0.8,0.5-1.3s-0.2-1-0.5-1.3c-0.4-0.4-0.8-0.6-1.3-0.6h-4.6c-1,0-1.9-0.4-2.6-1.1s-1.1-1.6-1.1-2.7s0.4-1.9,1.1-2.7
				C422.7,77.6,423.5,77.3,424.6,77.3z"/>
			<path class="st0" d="M436.5,90.5h-1.8v-1.9h1.8V90.5z"/>
		</g>
	</g>
</g>
</svg>
