<svg id="Слой_1" data-name="Слой 1" xmlns="http://www.w3.org/2000/svg" viewBox="0 0 200 50"><defs><style>.cls-1{fill:#e84c3d;}.cls-2{fill:#3598db;}</style></defs><polygon class="cls-1" points="112.42 27 115.59 27 115.16 23.01 112.42 27"/><path class="cls-1" d="M28.25,18.83a3.48,3.48,0,0,0,2.83,1.38,4.06,4.06,0,0,0,3.84-4.36,3.51,3.51,0,0,0-3.76-3.66c-2.58,0-4,1.27-5.71,4.36l-5,8.81-1.42-8.69c-.26-1.68,1.23-1.94,1.23-3,0-.78-.56-1.3-1.72-1.3H9.26c-1.31,0-1.76.52-1.64,1.38s1.53,1.19,1.86,3L11.35,27h12Z"/><path class="cls-2" d="M15.45,37.19c1.49,0,2.5-1,3.81-3.21l4.14-7h-12l1.26,7C13,36.29,14,37.19,15.45,37.19Z"/><path class="cls-1" d="M44.84,20.77c.91,0,1.6.76-.09,6.23h9.87c1-5-1.36-9.55-9.66-9.55-6.5,0-12.1,3.86-13.66,9.55h10"/><path class="cls-2" d="M41,37.52c6.64,0,12.05-4,13.5-10.15,0-.12.05-.25.08-.37H44.75c0,.14-.08.27-.13.41-1.83,5.93-2.83,6.94-3.73,6.87s-1.68-.68.22-6.83c0-.16.1-.3.15-.45h-10c0,.13-.08.25-.11.37C29.92,32.86,32.42,37.52,41,37.52Z"/><path class="cls-1" d="M68.68,21.22h2.16a2.13,2.13,0,0,0,2.24-1.64c.26-1-.22-1.65-1.41-1.65h-2l.52-1.71c.52-1.79-.19-2.84-2.2-2.84a6,6,0,0,0-4.93,2.2l-2.35,2.35H58.64c-1.45,0-2,.42-2.16,1-.41,1.72,3,2,2.05,5.08l-1,3h9.35Z"/><path class="cls-2" d="M61.44,37.52c5,0,8.51-3,8.47-4.4a.53.53,0,0,0-.52-.6c-.52,0-1.31.26-2.28.26s-1.82-.37-1.23-2.35l1-3.43H57.57l-1.42,4.4C55,35.1,57.38,37.52,61.44,37.52Z"/><path class="cls-1" d="M92.52,23.94c.71-3.17-.94-6.68-8.84-6.68-5.79,0-10.49,2.95-11.76,9.26,0,.16,0,.32-.07.48H90.23A4.82,4.82,0,0,0,92.52,23.94ZM80.36,26.07c.78-3.84,2.23-5.71,3-5.71.34,0,.56.34.6,1C84,23.64,82.89,26.4,80.36,26.07Z"/><path class="cls-2" d="M81.06,37.3c6,0,8.77-3.81,8.73-6.2,0-.37-.14-.48-.41-.48-.78,0-3,1.19-5.22,1.19s-4.1-.74-4.07-3.5c3.1.44,7.46.36,10.14-1.31H71.85C70.66,33.94,75.16,37.3,81.06,37.3Z"/><path class="cls-1" d="M115.16,23l.44,4h11.57l4.89-8.17a3,3,0,0,0,2.61,1.42,4.27,4.27,0,0,0,4.07-4.4A3.51,3.51,0,0,0,135,12.19c-2.54,0-3.8,1-5.41,3.8l-5,8.81-.45-8.13c-.12-1.76,1.23-1.94,1.23-3,0-.78-.56-1.3-1.72-1.3h-9.32c-1.31,0-1.76.52-1.65,1.38s1.65,1.12,1.87,3l.11.9-5.6,8-1-9c-.19-1.76,1.23-1.94,1.23-3,0-.78-.53-1.3-1.68-1.3H98.3c-1.31,0-1.76.52-1.64,1.38s1.56,1,1.86,3L100,27h12.45Z"/><path class="cls-2" d="M116.35,34c.27,2.38,1.35,3.21,2.84,3.21s2.46-.94,3.81-3.21l4.17-7H115.6Z"/><path class="cls-2" d="M103.67,37.19c1.38,0,2.2-.68,4-3.21l4.8-7H100l.94,6.6C101.25,36,102.18,37.19,103.67,37.19Z"/><path class="cls-1" d="M148.21,22.15c.78-2.57,0-4.7-3.92-4.7-3,0-6.49,1-6.79,2.16s1.75,1.05,1.2,2.84L137.33,27h9.39Z"/><path class="cls-1" d="M146.79,9.2a4,4,0,0,0-3.92,4,3.32,3.32,0,0,0,3.36,3.32,4,4,0,0,0,4-4.07A3.31,3.31,0,0,0,146.79,9.2Z"/><path class="cls-2" d="M133.1,36c-.19.67.37,1.16,1.72,1.16h8.5c1.61,0,2.24-.3,2.46-.94.26-1-1.64-.86-1-2.94L146.72,27h-9.39l-1.88,6.23C134.74,35.47,133.44,35,133.1,36Z"/><path class="cls-1" d="M159.06,21.78c0-1.12.94-1.72,2.13-1.72a4.74,4.74,0,0,1,1.19.19c-.74,2.42,1.5,4.21,4.29,4.21,2.54,0,3.92-1.26,3.88-3-.11-2.5-3.76-4.33-10-4.33-6.49,0-9.89,2.8-9.81,6.79a4.34,4.34,0,0,0,1.38,3.1H166.8C163.84,24.92,159.09,24,159.06,21.78Z"/><path class="cls-2" d="M159.55,32.41a2,2,0,0,1-2.24,2,6.38,6.38,0,0,1-1.72-.23c.68-3-1.71-5.11-4.4-5.11a3.19,3.19,0,0,0-3.39,2.17c-1.05,3.84,3.32,6.11,10.7,6.11,6,0,9.71-2.12,10.49-5.4.53-2.29-.56-3.79-2.19-4.93H152.09C154.56,29.45,159.49,30.19,159.55,32.41Z"/><path class="cls-1" d="M191.85,23.94c.71-3.17-.93-6.68-8.84-6.68-5.78,0-10.48,2.95-11.75,9.26,0,.16,0,.32-.08.48h18.39A4.84,4.84,0,0,0,191.85,23.94Zm-12.16,2.13c.79-3.84,2.24-5.71,3-5.71.33,0,.56.34.59,1C183.31,23.64,182.23,26.4,179.69,26.07Z"/><path class="cls-2" d="M180.4,37.3c6,0,8.77-3.81,8.73-6.2,0-.37-.15-.48-.41-.48-.78,0-3,1.19-5.22,1.19s-4.11-.74-4.07-3.5c3.1.44,7.45.36,10.14-1.31H171.18C170,33.94,174.5,37.3,180.4,37.3Z"/></svg>