<svg height="236.347442" preserveAspectRatio="xMidYMid meet" viewBox="0 0 846 473" width="423.105912" xmlns="http://www.w3.org/2000/svg"><g transform="matrix(.1 0 0 -.1 0 473)"><g fill="#03edff"><path d="m4751 2444c-772-231-1357-401-1360-395-3 5-71 185-151 400-79 215-147 391-150 391-5 0-700-1829-700-1842 0-4 521 252 1158 569 636 317 1477 734 1867 928 391 195 706 353 700 354-5 0-619-182-1364-405z"/><path d="m2319 585c-3-2-52-12-110-21-57-9-128-25-156-36-68-25-118-82-134-153-15-66-7-223 15-292l17-53h74c41 0 75 3 75 8 0 4-7 29-15 56-32 105-12 227 32 200 15-9 19-27 21-93l3-81h74 75v71c0 104 29 140 66 84 20-31 15-133-10-202l-15-43h75 75l16 38c49 116 39 247-23 301-42 38-69 45-141 39-51-4-61-9-90-43-19-23-33-32-33-23 0 8-11 27-25 42-19 21-33 26-72 26-75 1-32 17 77 29 93 10 185 34 195 51 8 12-37 100-50 100-7 0-14-2-16-5z"/><path d="m2695 571c-83-38-115-102-123-239-6-124 16-210 67-261 80-80 226-82 311-5 74 67 97 220 58 383-2 9 9 19 26 25 25 9 31 7 52-17 22-26 24-36 23-145 0-108-15-200-44-265-7-16-1-18 76-15l83 3 25 75c20 62 24 96 25 200 1 149-15 204-72 248-32 24-44 27-113 27-63 0-83-4-106-21l-28-21-44 24c-56 29-156 32-216 4zm134-110c24-24 37-140 26-233-9-81-19-98-54-98-50 0-56 19-56 170 0 122 2 140 19 159 24 26 40 27 65 2z"/><path d="m3435 578c-75-27-109-74-103-144 3-38 4-39 43-38 22 0 57 4 78 8 30 5 37 11 37 29 0 29 18 47 46 47 23 0 34-17 34-54 0-26-17-46-41-46-11 0-18-12-23-37-10-65-8-73 18-73 37 0 56-26 56-74 0-49-13-66-52-66-32 0-48 24-48 73 0 34-1 35-65 52-42 12-69 15-75 9s-13-31-16-56c-18-132 126-228 283-189 92 24 143 83 143 166 0 62-22 100-69 121l-40 17 32 16c42 21 71 80 63 127-9 44-61 96-113 112-49 14-147 14-188 0z"/><path d="m3890 568c-64-32-93-80-87-141 2-26 7-50 10-53s39 0 80 6c57 9 74 16 70 26-18 47 32 90 68 58 17-15 19-32 19-156 0-77-5-148-10-159-12-22-62-26-78-6-6 7-12 35-14 62l-3 49-64 19c-47 14-66 16-75 7-6-6-11-43-11-84 0-63 3-77 27-108 65-85 226-103 321-36 54 39 67 85 67 253 0 163-11 207-62 244-65 47-185 55-258 19z"/><path d="m4334 576c-44-19-71-59-84-120-21-104 19-193 111-244 27-15 49-30 49-33 0-4-18-9-40-13-22-3-40-8-40-10 0-3 9-25 20-51 16-38 24-46 38-40 51 21 111 35 153 35 58 0 126-25 140-51 8-16 22-19 94-19 47 0 85 3 85 7 0 29-48 96-87 122-44 30-69 39-209 80-86 25-128 60-144 122-15 55-3 112 24 117 27 6 36-15 36-90v-68h75 74l3 77c3 67 6 78 22 81 27 6 36-15 36-90v-68h75 75v75c0 80 13 101 45 75 20-17 20-129 0-177-8-20-14-38-12-39 2-2 32-17 68-33 76-35 79-33 110 54 28 79 24 200-7 241-42 56-69 69-151 69-73 0-76-1-102-33l-28-32-12 24c-17 30-51 46-103 46-33 0-46-6-71-33l-31-33-27 30c-23 26-34 30-90 33-40 2-76-2-95-11z"/><path d="m5225 576c-38-17-70-52-89-97-36-85-29-248 15-383l22-66h78c44 0 79 1 79 3 0 1-10 31-21 67-22 70-37 250-25 313 7 35 28 67 46 67 5 0 16-7 24-16 13-12 16-41 16-150v-134h80 79l3 141c3 122 5 143 20 153 14 8 22 6 40-12 22-21 23-30 21-145-1-88-7-144-22-201-12-44-21-81-21-83s35-3 78-1l77 3 25 70c21 61 24 88 25 205 0 125-2 139-25 184-33 65-66 88-133 94-75 6-124-12-149-54l-20-34-22 32c-12 18-33 38-46 45-33 17-117 16-155-1z"/><path d="m6424 571c-87-40-130-148-121-303 5-100 38-183 86-217 66-48 186-52 262-9 94 52 128 199 93 395-5 25-2 32 15 38 49 15 75-15 87-102 8-63-11-214-36-287l-19-57 82 3 82 3 25 70c21 61 24 87 25 210 0 131-2 143-25 184-40 71-68 86-160 86-63 0-84-4-106-20l-27-21-45 23c-58 30-158 31-218 4zm143-118c15-22 18-49 18-153 0-147-9-173-58-168-47 4-60 51-55 195 4 91 8 116 23 133 25 28 51 25 72-7z"/><path d="m7155 579c-72-27-115-99-100-167 6-28 8-29 43-22 20 4 54 11 75 14 30 6 37 11 37 29 0 50 63 67 80 22 14-37-3-75-35-75-17 0-25-5-25-17 0-10-3-35-6-55-6-36-6-37 27-40 44-4 66-44 53-97-8-32-13-36-46-39-43-4-62 21-56 73 4 32 3 32-58 48-34 10-67 17-73 17-20 0-32-76-20-124 45-179 362-181 418-4 23 69-7 143-68 168l-31 12 33 22c83 56 72 165-22 220-40 23-178 32-226 15z"/><path d="m7635 571c-72-33-100-78-115-184-10-68 3-230 25-304l16-53h78 78l-15 63c-9 38-15 115-16 203-1 126 1 144 18 163 24 27 48 27 72 0 32-35 31-236-2-396l-6-33h76c72 0 77 2 86 24 32 84 45 316 22 393-16 55-56 101-107 124-54 25-157 25-210 0z"/><path d="m10 365c0-160 4-224 14-248 57-138 331-143 403-8 33 62 30 122-9 226l-33 85h-77c-77 0-78 0-78-25 0-14 11-53 25-87 26-65 32-126 15-159-15-26-75-26-90 0-6 12-10 103-10 225v206h-80-80z"/><path d="m627 543c10-63 28-105 80-185 57-87 71-140 49-193-13-31-19-35-50-35-53 0-71 32-63 113l6 63-64 23c-36 12-68 20-73 17-18-11-34-96-30-150 6-69 43-128 101-158 58-31 184-32 241-2 84 43 122 129 105 235-6 37-25 78-69 147-33 53-63 111-66 129l-6 33h-83-84z"/><path d="m1220 534c0-44-1-46-22-39-120 39-218-15-218-122 0-77 7-82 100-62 46 10 50 13 50 39 0 38 32 57 66 41 23-10 24-15 24-116 0-120-8-145-48-145-35 0-52 17-52 51 0 24-5 28-67 43-41 11-70 13-75 8-17-17-12-98 8-133 56-97 265-118 342-36 46 49 52 83 52 307v210h-80-80z"/><path d="m1570 546c0-49 17-92 76-185 58-91 69-125 60-176-8-43-27-57-68-53-46 4-61 36-53 114l5 60-66 24c-74 26-76 25-95-45-38-137 46-259 188-272 131-12 227 48 253 157 18 77 2 137-71 255-33 53-63 110-66 126l-5 29h-79-79z"/><path d="m5822 363c3-208 4-220 27-259 45-80 166-114 282-81 130 38 171 160 105 310-14 32-26 64-26 72 0 12-16 15-80 15h-80v-28c0-16 11-56 25-90 26-65 32-121 15-153-15-26-75-26-90 0-6 12-10 103-10 225v206h-86-86z"/><path d="m8010 370c0-224 6-258 53-308 52-56 214-67 298-21 94 52 113 152 57 297l-32 82h-78c-74 0-78-1-78-22 0-13 12-50 25-83 27-65 33-153 13-173s-65-14-82 10c-13 19-16 58-16 225v203h-80-80z"/></g><path d="m2411 4653c17-43 175-458 351-923s323-848 327-853c4-4 77 176 163 400 109 286 159 407 169 406 8-2 617-185 1353-408 737-223 1341-404 1342-402 3 3-3693 1842-3727 1855-4 2 6-32 22-75z" fill="#702f92"/><path d="m3400 3687c0-8-300-793-308-806-5-9-3-25 4-40s76-197 153-405c78-209 144-383 148-386 5-4 591 168 1303 381s1328 397 1369 409c40 11 71 23 69 25-5 6-2715 825-2727 825-6 0-11-2-11-3z" fill="#4b2a75"/></g></svg>