<?xml version="1.0" encoding="UTF-8" standalone="no"?>
<svg
   id="Logo_Home"
   data-name="Logo Home"
   width="71.261536"
   height="73.726685"
   viewBox="0 0 71.261532 73.726687"
   version="1.1"
   sodipodi:docname="Logo_of_the_Georgian_Dream.svg"
   inkscape:version="1.1.2 (b8e25be833, 2022-02-05)"
   xmlns:inkscape="http://www.inkscape.org/namespaces/inkscape"
   xmlns:sodipodi="http://sodipodi.sourceforge.net/DTD/sodipodi-0.dtd"
   xmlns="http://www.w3.org/2000/svg"
   xmlns:svg="http://www.w3.org/2000/svg">
  <defs
     id="defs21" />
  <sodipodi:namedview
     id="namedview19"
     pagecolor="#505050"
     bordercolor="#eeeeee"
     borderopacity="1"
     inkscape:pageshadow="0"
     inkscape:pageopacity="0"
     inkscape:pagecheckerboard="0"
     showgrid="false"
     fit-margin-top="0"
     fit-margin-left="0"
     fit-margin-right="0"
     fit-margin-bottom="0"
     inkscape:zoom="16"
     inkscape:cx="81.6875"
     inkscape:cy="47.3125"
     inkscape:window-width="1920"
     inkscape:window-height="1017"
     inkscape:window-x="-8"
     inkscape:window-y="-8"
     inkscape:window-maximized="1"
     inkscape:current-layer="Logo_Home" />
  <path
     id="Path_34"
     data-name="Path 34"
     d="m 6.392,28.228548 a 1.615,1.615 0 0 1 0.77,0.355 1.824,1.824 0 0 1 0.487,0.669 2.683,2.683 0 0 1 0.209,0.91 4.257,4.257 0 0 1 -0.072,1.076 3.935,3.935 0 0 1 -0.333,1.023 2.787,2.787 0 0 1 -0.548,0.77 1.915,1.915 0 0 1 -0.719,0.448 1.635,1.635 0 0 1 -0.843,0.051 l -0.185,-0.035 a 0.767,0.767 0 0 1 -0.4,-0.222 1.642,1.642 0 0 1 -0.331,-0.488 l 0.633,-1.053 a 1.122,1.122 0 0 0 0.6,0.386 0.7,0.7 0 0 0 0.645,-0.181 1.666,1.666 0 0 0 0.388,-0.905 2.433,2.433 0 0 0 0.045,-0.504 1.414,1.414 0 0 0 -0.072,-0.419 0.692,0.692 0 0 0 -0.185,-0.3 0.609,0.609 0 0 0 -0.307,-0.151 l -2.19,-0.413 a 1.507,1.507 0 0 0 -0.383,-0.012 1.2,1.2 0 0 0 -0.46,0.138 1.254,1.254 0 0 0 -0.421,0.38 1.72,1.72 0 0 0 -0.276,0.708 1.225,1.225 0 0 0 -0.022,0.385 0.6,0.6 0 0 0 0.08,0.238 0.36,0.36 0 0 0 0.137,0.128 0.594,0.594 0 0 0 0.157,0.055 0.687,0.687 0 0 0 0.329,-0.014 1.067,1.067 0 0 0 0.315,-0.164 l 0.3,1.045 a 1.326,1.326 0 0 1 -0.274,0.296 1.188,1.188 0 0 1 -0.307,0.166 1.142,1.142 0 0 1 -0.315,0.065 1.191,1.191 0 0 1 -0.3,-0.018 1.438,1.438 0 0 1 -0.6,-0.256 1.44,1.44 0 0 1 -0.421,-0.5 2,2 0 0 1 -0.205,-0.715 3.046,3.046 0 0 1 0.048,-0.909 2.283,2.283 0 0 1 0.307,-0.814 2.6,2.6 0 0 1 0.515,-0.591 l -0.928,-0.174 -0.214,1.132 -1.046,-0.2 0.47,-2.5 z"
     fill="#26519d" />
  <path
     id="Path_35"
     data-name="Path 35"
     d="m 11.11,17.676548 q 2.037,1.29 0.59,3.574 a 3.4,3.4 0 0 1 -0.779,0.895 2.466,2.466 0 0 1 -0.88,0.443 2.1,2.1 0 0 1 -0.9,0.036 2.372,2.372 0 0 1 -0.855,-0.337 l -0.281,-0.179 a 1.138,1.138 0 0 1 -0.269,-0.244 2.233,2.233 0 0 1 -0.235,-0.356 4.674,4.674 0 0 1 -0.2,-0.439 c -0.064,-0.16 -0.123,-0.324 -0.174,-0.5 l 0.977,-0.686 a 4.074,4.074 0 0 0 0.373,0.659 1.353,1.353 0 0 0 0.307,0.335 l 0.3,0.192 a 1.829,1.829 0 0 0 0.472,0.22 0.878,0.878 0 0 0 0.432,0.021 0.922,0.922 0 0 0 0.4,-0.2 1.872,1.872 0 0 0 0.381,-0.456 1.992,1.992 0 0 0 0.24,-0.511 0.881,0.881 0 0 0 0.007,-0.448 1,1 0 0 0 -0.225,-0.414 2.206,2.206 0 0 0 -0.484,-0.394 l -0.462,-0.294 a 1.55,1.55 0 0 0 -0.544,-0.218 2.277,2.277 0 0 0 -0.564,-0.031 3.245,3.245 0 0 0 -0.575,0.1 q -0.292,0.074 -0.58,0.159 -0.327,0.1 -0.653,0.18 a 3.687,3.687 0 0 1 -0.65,0.1 2.35,2.35 0 0 1 -0.644,-0.045 1.9,1.9 0 0 1 -0.64,-0.268 l -0.715,-0.451 0.743,-1.175 0.714,0.452 a 1.035,1.035 0 0 0 0.408,0.151 1.824,1.824 0 0 0 0.459,0 3.725,3.725 0 0 0 0.5,-0.1 l 0.529,-0.143 v 0 c 0.241,-0.069 0.485,-0.135 0.733,-0.2 a 4.013,4.013 0 0 1 0.745,-0.112 2.98,2.98 0 0 1 0.759,0.057 2.241,2.241 0 0 1 0.756,0.316 z"
     fill="#26519d" />
  <path
     id="Path_36"
     data-name="Path 36"
     d="m 22.541,7.9935483 a 1.514,1.514 0 0 1 0.2,0.489 2.749,2.749 0 0 1 0.065,0.64 3.682,3.682 0 0 1 -0.077,0.724 3.282,3.282 0 0 1 -0.665,1.4189997 2.72,2.72 0 0 1 -0.623,0.559 l -0.614,-0.94 a 1.3,1.3 0 0 0 0.431,-0.457 1.98,1.98 0 0 0 0.216,-0.5809997 1.8,1.8 0 0 0 0.019,-0.583 1.149,1.149 0 0 0 -0.159,-0.467 l -0.4,-0.621 a 1.655,1.655 0 0 0 -0.461,-0.494 1.143,1.143 0 0 0 -0.466,-0.181 0.985,0.985 0 0 0 -0.424,0.033 1.364,1.364 0 0 0 -0.326,0.147 1.384,1.384 0 0 0 -0.288,0.259 1.043,1.043 0 0 0 -0.2,0.37 1.059,1.059 0 0 0 -0.03,0.465 1.332,1.332 0 0 0 0.225,0.543 l 0.738,1.1309997 -1.217,0.794 -0.739,-1.132 a 1.359,1.359 0 0 0 -0.407,-0.4219997 1.122,1.122 0 0 0 -0.432,-0.165 1,1 0 0 0 -0.411,0.029 1.279,1.279 0 0 0 -0.345,0.154 1.544,1.544 0 0 0 -0.319,0.274 0.864,0.864 0 0 0 -0.195,0.3699997 1.068,1.068 0 0 0 0,0.485 1.861,1.861 0 0 0 0.28,0.611 l 0.419,0.642 a 1.155,1.155 0 0 0 0.345,0.329 1.649,1.649 0 0 0 0.522,0.221 1.757,1.757 0 0 0 0.616,0.034 1.442,1.442 0 0 0 0.628,-0.235 l 0.608,0.93 a 3.128,3.128 0 0 1 -0.843,0.394 3.084,3.084 0 0 1 -0.821,0.124 3.027,3.027 0 0 1 -0.763,-0.087 3.251,3.251 0 0 1 -0.667,-0.242 2.681,2.681 0 0 1 -0.526,-0.342 1.811,1.811 0 0 1 -0.351,-0.385 l -0.385,-0.589 a 5.627,5.627 0 0 1 -0.518,-1.008 3.68,3.68 0 0 1 -0.248,-1.124 3.815,3.815 0 0 1 0.133,-1.2279997 4.6,4.6 0 0 1 0.622,-1.322 8.066,8.066 0 0 1 1.217,-1.406 13.951,13.951 0 0 1 1.92,-1.474 l 0.613,0.94 a 10.721,10.721 0 0 0 -2.2,1.817 4.345,4.345 0 0 0 -0.992,1.688 l 0.287,-0.281 a 3.967,3.967 0 0 1 0.455,-0.254 2.205,2.205 0 0 1 0.5,-0.166 2,2 0 0 1 0.54,-0.031 1.838,1.838 0 0 1 0.579,0.148 1.911,1.911 0 0 1 0.118,-0.6 2.166,2.166 0 0 1 0.251,-0.485 2.2,2.2 0 0 1 0.331,-0.381 2.869,2.869 0 0 1 0.363,-0.284 3.629,3.629 0 0 1 0.868,-0.417 2.329,2.329 0 0 1 0.917,-0.112 2.025,2.025 0 0 1 0.891,0.3 2.561,2.561 0 0 1 0.8,0.818 z"
     fill="#26519d" />
  <path
     id="Path_37"
     data-name="Path 37"
     d="m 37.451,4.3085483 a 6.24,6.24 0 0 1 0.013,0.8 4.544,4.544 0 0 1 -0.109,0.795 3.332,3.332 0 0 1 -0.268,0.74 2.305,2.305 0 0 1 -1.157,1.077 2.962,2.962 0 0 1 -0.958,0.227 l -0.094,-1.107 a 1.048,1.048 0 0 0 0.63,-0.247 1.377,1.377 0 0 0 0.359,-0.538 2.476,2.476 0 0 0 0.149,-0.732 5.727,5.727 0 0 0 -0.01,-0.83 l -0.118,-1.393 c -0.013,-0.163 -0.03,-0.326 -0.05,-0.491 -0.02,-0.165 -0.046,-0.323 -0.08,-0.475 a 2.454,2.454 0 0 0 -0.133,-0.421 1.2,1.2 0 0 0 -0.207,-0.331 0.824,0.824 0 0 0 -0.3,-0.211 0.892,0.892 0 0 0 -0.413,-0.051 1.485,1.485 0 0 0 -0.573,0.139 0.68,0.68 0 0 0 -0.281,0.268 0.739,0.739 0 0 0 -0.087,0.343 3.553,3.553 0 0 0 0.013,0.374 l 0.237,2.829 a 4.278,4.278 0 0 1 0,0.718 3.511,3.511 0 0 1 -0.131,0.7 2.636,2.636 0 0 1 -0.283,0.637 2.188,2.188 0 0 1 -0.458,0.531 2.381,2.381 0 0 1 -0.653,0.385 2.968,2.968 0 0 1 -0.869,0.193 3.177,3.177 0 0 1 -0.94,-0.044 2.244,2.244 0 0 1 -0.717,-0.277 2,2 0 0 1 -0.527,-0.463 2.807,2.807 0 0 1 -0.365,-0.606 3.551,3.551 0 0 1 -0.226,-0.7 6.289,6.289 0 0 1 -0.11,-0.753 l -0.166,-1.976 a 5.15,5.15 0 0 1 -0.01,-0.69 3.09,3.09 0 0 1 0.107,-0.669 2.539,2.539 0 0 1 0.259,-0.61 2,2 0 0 1 0.443,-0.51999997 2.349,2.349 0 0 1 0.662,-0.382 3.627,3.627 0 0 1 0.918,-0.214 4.631,4.631 0 0 1 0.486,-0.012 2.9,2.9 0 0 1 0.526,0.063 2.471,2.471 0 0 1 0.518,0.172 1.559,1.559 0 0 1 0.457,0.318 1.663,1.663 0 0 1 0.311,-0.411 1.328,1.328 0 0 1 0.374,-0.249 1.935,1.935 0 0 1 0.45,-0.132 c 0.163,-0.027 0.343,-0.05 0.539,-0.066 a 3.1,3.1 0 0 1 0.954,0.049 2.077,2.077 0 0 1 0.7,0.292 1.809,1.809 0 0 1 0.483,0.478 2.728,2.728 0 0 1 0.309,0.60699997 4.051,4.051 0 0 1 0.18,0.684 c 0.04,0.238 0.071,0.471 0.09,0.7 z m -5.121,-1.947 a 1.159,1.159 0 0 0 -0.093,-0.366 0.9,0.9 0 0 0 -0.231,-0.316 1.019,1.019 0 0 0 -0.389,-0.208 1.52,1.52 0 0 0 -0.567,-0.044 0.99,0.99 0 0 0 -0.593,0.225 1.162,1.162 0 0 0 -0.325,0.483 2.151,2.151 0 0 0 -0.119,0.638 5.577,5.577 0 0 0 0.015,0.7 l 0.144,1.716 a 6.5,6.5 0 0 0 0.127,0.886 1.923,1.923 0 0 0 0.24,0.618 0.918,0.918 0 0 0 0.394,0.352 1.2,1.2 0 0 0 0.594,0.079 1.165,1.165 0 0 0 0.548,-0.17 0.941,0.941 0 0 0 0.338,-0.387 1.691,1.691 0 0 0 0.155,-0.584 4.105,4.105 0 0 0 0,-0.759 z"
     fill="#26519d" />
  <path
     id="Path_38"
     data-name="Path 38"
     d="m 49.495,8.7015483 a 2.767,2.767 0 0 1 -0.523,0.889 1.9,1.9 0 0 1 -0.731,0.5069997 2.107,2.107 0 0 1 -0.91,0.125 3.722,3.722 0 0 1 -1.068,-0.2499997 4.025,4.025 0 0 1 -1.048,-0.573 2.589,2.589 0 0 1 -0.668,-0.743 1.99,1.99 0 0 1 -0.272,-0.854 2.055,2.055 0 0 1 0.137,-0.9 l 0.163,-0.429 a 1.21,1.21 0 0 1 0.42,-0.574 2.076,2.076 0 0 1 0.7,-0.314 l 0.895,0.8 a 0.95,0.95 0 0 0 -0.43,0.257 1.084,1.084 0 0 0 -0.229,0.346 l -0.163,0.429 a 1.084,1.084 0 0 0 -0.073,0.447 0.976,0.976 0 0 0 0.121,0.42 1.238,1.238 0 0 0 0.321,0.365 1.955,1.955 0 0 0 0.521,0.285 1.373,1.373 0 0 0 0.555,0.108 0.834,0.834 0 0 0 0.416,-0.126 1,1 0 0 0 0.3,-0.312 2.408,2.408 0 0 0 0.221,-0.451 l 1.515,-3.974 q 0.033,-0.083 -0.108,-0.215 a 1.307,1.307 0 0 0 -0.422,-0.238 0.759,0.759 0 0 0 -0.371,-0.063 c -0.1,0.014 -0.158,0.049 -0.18,0.1 l -0.638,1.672 -1.187,-0.452 0.638,-1.672 a 0.2,0.2 0 0 0 -0.031,-0.21 0.576,0.576 0 0 0 -0.245,-0.157 0.2,0.2 0 0 0 -0.144,0.009 c -0.057,0.021 -0.115,0.044 -0.174,0.07 a 2.269,2.269 0 0 1 -0.347,0.112 0.683,0.683 0 0 1 -0.4,-0.042 1,1 0 0 1 -0.268,-0.153 1.75,1.75 0 0 1 -0.233,-0.22 1.952,1.952 0 0 1 -0.192,-0.26 2.512,2.512 0 0 1 -0.145,-0.279 l 0.493,-1.29199997 q 0.088,0.15599997 0.2,0.34299997 c 0.078,0.124 0.154,0.241 0.229,0.349 0.075,0.108 0.144,0.2 0.209,0.281 a 0.469,0.469 0 0 0 0.147,0.138 c 0,0 0.012,-0.007 0.047,-0.016 l 0.119,-0.033 a 2.775,2.775 0 0 1 0.371,-0.065 0.863,0.863 0 0 1 0.407,0.061 1.566,1.566 0 0 1 0.573,0.355 1.371,1.371 0 0 1 0.319,0.527 1.42,1.42 0 0 1 0.622,-0.168 1.552,1.552 0 0 1 0.61,0.1 2.893,2.893 0 0 1 0.646,0.346 2.671,2.671 0 0 1 0.521,0.48 1.621,1.621 0 0 1 0.3,0.551 0.838,0.838 0 0 1 -0.014,0.556 z"
     fill="#26519d" />
  <path
     id="Path_39"
     data-name="Path 39"
     d="m 64.6,18.680548 a 1.891,1.891 0 0 1 -0.418,0.267 3.474,3.474 0 0 1 -0.562,0.211 4.582,4.582 0 0 1 -0.66,0.134 4.724,4.724 0 0 1 -0.706,0.042 4.128,4.128 0 0 1 -0.7,-0.069 3,3 0 0 1 -0.652,-0.2 l -0.088,-1.215 a 3.732,3.732 0 0 0 0.862,0.159 4.236,4.236 0 0 0 0.82,-0.024 3.152,3.152 0 0 0 0.694,-0.168 1.56,1.56 0 0 0 0.483,-0.272 l 0.456,-0.4 a 1.782,1.782 0 0 0 0.348,-0.4 1.105,1.105 0 0 0 0.156,-0.4 0.856,0.856 0 0 0 -0.025,-0.378 0.871,0.871 0 0 0 -0.183,-0.327 1.336,1.336 0 0 0 -0.4,-0.328 0.733,0.733 0 0 0 -0.379,-0.079 0.83,0.83 0 0 0 -0.361,0.114 2.192,2.192 0 0 0 -0.349,0.252 l -1.092,0.961 -0.919,-1.043 1.092,-0.962 a 2.546,2.546 0 0 0 0.3,-0.31 1.046,1.046 0 0 0 0.188,-0.336 0.684,0.684 0 0 0 0.014,-0.362 0.9,0.9 0 0 0 -0.223,-0.4 0.835,0.835 0 0 0 -0.346,-0.251 0.756,0.756 0 0 0 -0.364,-0.035 1.1,1.1 0 0 0 -0.36,0.126 1.877,1.877 0 0 0 -0.335,0.236 l -1.117,0.981 -0.926,-1.053 1.116,-0.982 a 3.581,3.581 0 0 0 0.284,-0.279 0.771,0.771 0 0 0 0.177,-0.31 0.645,0.645 0 0 0 -0.015,-0.374 1.37,1.37 0 0 0 -0.3,-0.471 0.84,0.84 0 0 0 -0.373,-0.257 0.909,0.909 0 0 0 -0.422,-0.029 1.326,1.326 0 0 0 -0.444,0.162 2.6,2.6 0 0 0 -0.441,0.316 l -0.493,0.451 a 2.166,2.166 0 0 0 -0.589,0.792 2.849,2.849 0 0 0 -0.226,1 4.367,4.367 0 0 0 0.108,1.151 6.614,6.614 0 0 0 0.415,1.241 9.106,9.106 0 0 0 0.7,1.273 10.933,10.933 0 0 0 0.95,1.245 l 0.761,0.865 -0.91,0.8 -0.743,-0.846 a 12.44,12.44 0 0 1 -1.321,-1.779 9.847,9.847 0 0 1 -0.832,-1.707 6.9,6.9 0 0 1 -0.383,-1.586 5.338,5.338 0 0 1 0.023,-1.417 4,4 0 0 1 0.383,-1.2 3.282,3.282 0 0 1 0.7,-0.929 l 0.52,-0.4669997 a 3.332,3.332 0 0 1 0.83,-0.542 2.121,2.121 0 0 1 0.877,-0.186 2.015,2.015 0 0 1 0.89,0.218 2.813,2.813 0 0 1 0.863,0.693 2.464,2.464 0 0 1 0.3,0.4169997 1.737,1.737 0 0 1 0.176,0.437 2.1,2.1 0 0 1 0.059,0.47 2.886,2.886 0 0 1 -0.046,0.52 2.152,2.152 0 0 1 0.924,0.046 1.646,1.646 0 0 1 0.767,0.518 1.684,1.684 0 0 1 0.415,0.824 2.318,2.318 0 0 1 -0.038,0.947 2.522,2.522 0 0 1 1,0.184 2.005,2.005 0 0 1 0.743,0.526 2.908,2.908 0 0 1 0.513,0.812 2.228,2.228 0 0 1 0.174,0.869 2.068,2.068 0 0 1 -0.2,0.861 2.419,2.419 0 0 1 -0.612,0.789 z"
     fill="#26519d" />
  <path
     id="Path_40"
     data-name="Path 40"
     d="m 67.166,31.443548 a 6.867,6.867 0 0 1 -1.036,0.16 3.223,3.223 0 0 1 -1.024,-0.079 2.376,2.376 0 0 1 -0.913,-0.451 2.563,2.563 0 0 1 -0.711,-0.963 l 1.107,-0.415 a 0.709,0.709 0 0 0 0.675,0.5 4.14,4.14 0 0 0 1.522,-0.148 l 1.749,-0.432 a 5.354,5.354 0 0 0 0.748,-0.24 1.7,1.7 0 0 0 0.523,-0.326 0.929,0.929 0 0 0 0.266,-0.45 1.253,1.253 0 0 0 -0.02,-0.6 1.473,1.473 0 0 0 -0.284,-0.6 0.97,0.97 0 0 0 -0.458,-0.3 1.636,1.636 0 0 0 -0.624,-0.049 5.453,5.453 0 0 0 -0.786,0.14 l -1.717,0.425 q -0.465,0.116 -0.829,0.234 a 3.551,3.551 0 0 0 -0.6,0.252 1.02,1.02 0 0 0 -0.345,0.289 0.4,0.4 0 0 0 -0.061,0.338 l -1.132,0.267 a 2.6,2.6 0 0 1 0.046,-0.854 2.049,2.049 0 0 1 0.275,-0.655 2.06,2.06 0 0 1 0.452,-0.489 3.057,3.057 0 0 1 0.571,-0.354 4.771,4.771 0 0 1 0.634,-0.25 c 0.219,-0.069 0.434,-0.13 0.643,-0.182 l 1.7,-0.42 a 5.874,5.874 0 0 1 0.7,-0.128 3.411,3.411 0 0 1 0.714,-0.012 2.855,2.855 0 0 1 0.69,0.148 1.978,1.978 0 0 1 0.621,0.357 2.4,2.4 0 0 1 0.51,0.616 3.314,3.314 0 0 1 0.357,0.917 3.356,3.356 0 0 1 0.1,1.4 2.021,2.021 0 0 1 -0.437,0.96 2.385,2.385 0 0 1 -0.83,0.614 5.936,5.936 0 0 1 -1.077,0.373 z"
     fill="#26519d" />
  <path
     id="Path_41"
     data-name="Path 41"
     d="m 45.293,46.728548 5.734,9.628 -8.095,-7.751 3.447,10.663 -6.167,-9.36 0.983,11.168 -3.927,-10.5 -1.524,11.106 -1.491,-11.106 -3.951,10.489 1.013,-11.166 -6.183,9.346 3.47,-10.652 -8.111,7.731 5.755,-9.616 -9.627,5.736 7.752,-8.1 -10.669,3.446 9.36,-6.166 -11.161,0.99 10.495,-3.932 -11.1,-1.52 11.108,-1.5 -10.485,-3.952 11.16,1.013 -9.347,-6.188 10.658,3.472 -7.741,-8.108 9.613,5.756 -5.73,-9.631 8.1,7.755 -3.448,-10.665 6.166,9.358 -0.988,-11.163 3.926,10.49 1.517,-11.1 1.5,11.109 3.955,-10.488 -1.015,11.162 6.187,-9.343 -3.472,10.653 8.112,-7.732 -5.754,9.617 9.631,-5.735 -7.758,8.095 10.667,-3.446 -9.358,6.167 11.162,-0.99 -10.5,3.932 11.1,1.521 -11.1,1.494 10.487,3.954 -11.168,-1.012 9.349,6.187 -10.656,-3.472 7.736,8.113 z m 2.335,-6.937 -3.675,-4.616 1.277,-5.62 h -5.749 l -3.742,-4.7 -3.7,4.7 h -5.8 l 1.322,5.7 -3.629,4.62 5.289,2.533 1.313,5.642 5.209,-2.521 5.274,2.521 1.3,-5.693 z"
     fill="#fdb714" />
  <path
     id="Path_42"
     data-name="Path 42"
     d="m 13.793,60.725548 c 0.216,-0.2 0.408,-0.388 0.579,-0.57 a 2.2,2.2 0 0 0 0.381,-0.537 0.91,0.91 0 0 0 0.085,-0.535 1.083,1.083 0 0 0 -0.306,-0.56 1.017,1.017 0 0 0 -1.627,-0.042 l -2.276,2.1 -0.981,-1.064 2.278,-2.1 a 1.211,1.211 0 0 0 0.467,-0.809 1.184,1.184 0 0 0 -0.383,-0.825 1.008,1.008 0 0 0 -0.51,-0.326 0.983,0.983 0 0 0 -0.549,0.04 2.217,2.217 0 0 0 -0.591,0.332 c -0.206,0.155 -0.419,0.335 -0.642,0.54 l -0.932,0.859 a 4.293,4.293 0 0 0 -0.569,0.638 2.618,2.618 0 0 0 -0.375,0.713 1.637,1.637 0 0 0 -0.072,0.727 1.242,1.242 0 0 0 0.342,0.678 l -0.819,0.753 a 3.524,3.524 0 0 1 -0.611,-0.883 2.649,2.649 0 0 1 -0.245,-0.855 2.394,2.394 0 0 1 0.054,-0.816 3.226,3.226 0 0 1 0.287,-0.754 4.018,4.018 0 0 1 0.455,-0.677 5.672,5.672 0 0 1 0.551,-0.584 l 0.949,-0.873 q 0.291,-0.268 0.6,-0.508 a 4.372,4.372 0 0 1 0.638,-0.408 2.765,2.765 0 0 1 0.672,-0.244 1.854,1.854 0 0 1 0.706,-0.016 2.191,2.191 0 0 1 0.733,0.277 3.364,3.364 0 0 1 0.76,0.638 2.2,2.2 0 0 1 0.347,0.488 2.153,2.153 0 0 1 0.183,0.5 2.214,2.214 0 0 1 0.054,0.5 3.1,3.1 0 0 1 -0.039,0.475 3.119,3.119 0 0 1 0.475,0.014 2.277,2.277 0 0 1 0.5,0.111 2.53,2.53 0 0 1 0.508,0.244 2.355,2.355 0 0 1 0.483,0.405 3.251,3.251 0 0 1 0.55,0.783 2.224,2.224 0 0 1 0.216,0.742 1.917,1.917 0 0 1 -0.062,0.7 2.722,2.722 0 0 1 -0.279,0.652 3.8,3.8 0 0 1 -0.435,0.6 7.191,7.191 0 0 1 -0.533,0.546 l -1.01,0.922 a 5.022,5.022 0 0 1 -0.613,0.479 3.984,3.984 0 0 1 -0.716,0.378 3.508,3.508 0 0 1 -0.79,0.216 2.591,2.591 0 0 1 -0.829,-0.006 2.633,2.633 0 0 1 -0.831,-0.295 3.148,3.148 0 0 1 -0.8,-0.648 l 0.817,-0.753 a 1.144,1.144 0 0 0 0.614,0.362 1.683,1.683 0 0 0 0.73,-0.02 2.656,2.656 0 0 0 0.76,-0.307 4.122,4.122 0 0 0 0.707,-0.523 z"
     fill="#26519d" />
  <path
     id="Path_43"
     data-name="Path 43"
     d="m 23.921,69.468548 a 2.12,2.12 0 0 1 -0.631,0.8 2.447,2.447 0 0 1 -0.91,0.44 3.065,3.065 0 0 1 -1.094,0.059 3.8,3.8 0 0 1 -1.172,-0.339 3.691,3.691 0 0 1 -1.04,-0.71 3.1,3.1 0 0 1 -0.672,-0.954 2.686,2.686 0 0 1 -0.236,-1.1 2.711,2.711 0 0 1 0.268,-1.165 l 0.781,-1.686 c 0.072,-0.154 0.166,-0.339 0.281,-0.553 a 5,5 0 0 1 0.451,-0.68 5.333,5.333 0 0 1 0.678,-0.718 4.931,4.931 0 0 1 0.971,-0.665 l 0.592,1.1 a 2.766,2.766 0 0 0 -0.566,0.462 5.124,5.124 0 0 0 -0.466,0.565 5.478,5.478 0 0 0 -0.363,0.583 q -0.155,0.288 -0.26,0.515 l -0.782,1.685 a 1.675,1.675 0 0 0 -0.149,0.612 1.823,1.823 0 0 0 0.4,1.256 1.594,1.594 0 0 0 0.581,0.444 1.907,1.907 0 0 0 0.663,0.184 1.5,1.5 0 0 0 0.581,-0.063 1.27,1.27 0 0 0 0.463,-0.266 1.332,1.332 0 0 0 0.309,-0.42 l 0.149,-0.322 a 1.742,1.742 0 0 0 0.129,-0.383 0.875,0.875 0 0 0 0.005,-0.345 0.676,0.676 0 0 0 -0.137,-0.294 0.8,0.8 0 0 0 -0.3,-0.223 l -0.892,-0.413 0.468,-1.008 0.892,0.414 a 0.868,0.868 0 0 0 0.36,0.089 0.858,0.858 0 0 0 0.3,-0.05 0.655,0.655 0 0 0 0.215,-0.127 0.525,0.525 0 0 0 0.115,-0.145 0.253,0.253 0 0 0 0.019,-0.152 0.755,0.755 0 0 0 -0.06,-0.177 1.618,1.618 0 0 0 -0.11,-0.195 c -0.044,-0.066 -0.087,-0.133 -0.135,-0.2 -0.085,-0.124 -0.17,-0.26 -0.256,-0.409 a 1.917,1.917 0 0 1 -0.192,-0.492 1.862,1.862 0 0 1 -0.04,-0.583 2.008,2.008 0 0 1 0.2,-0.683 l 1.193,0.554 a 1.022,1.022 0 0 0 -0.1,0.372 0.88,0.88 0 0 0 0.038,0.319 1.215,1.215 0 0 0 0.134,0.29 c 0.059,0.093 0.122,0.185 0.189,0.277 0.09,0.13 0.179,0.261 0.266,0.392 a 2.008,2.008 0 0 1 0.21,0.4 1.354,1.354 0 0 1 0.085,0.428 1.012,1.012 0 0 1 -0.1,0.451 c -0.034,0.073 -0.076,0.154 -0.127,0.243 a 0.89,0.89 0 0 1 -0.216,0.25 1.123,1.123 0 0 1 -0.361,0.192 1.643,1.643 0 0 1 -0.556,0.07 1.531,1.531 0 0 1 0.269,0.522 1.4,1.4 0 0 1 0.056,0.468 1.369,1.369 0 0 1 -0.089,0.4 c -0.049,0.125 -0.1,0.236 -0.141,0.335 z"
     fill="#26519d" />
  <path
     id="Path_44"
     data-name="Path 44"
     d="m 35.246,71.710548 a 2.374,2.374 0 0 1 -0.261,0.914 1.876,1.876 0 0 1 -0.584,0.658 2.43,2.43 0 0 1 -0.884,0.371 3.809,3.809 0 0 1 -1.162,0.05 3.561,3.561 0 0 1 -1.07,-0.257 2.561,2.561 0 0 1 -0.812,-0.529 2.047,2.047 0 0 1 -0.495,-0.761 2.147,2.147 0 0 1 -0.112,-0.959 l 0.375,-4.006 a 1.667,1.667 0 0 1 0.2,-0.686 1.349,1.349 0 0 1 0.414,-0.451 1.537,1.537 0 0 1 0.572,-0.235 2.314,2.314 0 0 1 0.676,-0.031 3.554,3.554 0 0 1 0.548,0.093 c 0.17,0.044 0.336,0.089 0.5,0.136 h -0.007 c 0.143,0.042 0.28,0.079 0.411,0.112 a 2.438,2.438 0 0 0 0.365,0.065 2.334,2.334 0 0 0 0.7,-0.055 c 0.26,-0.057 0.6,-0.14 1,-0.252 l -0.1,1.055 c -0.179,0.071 -0.345,0.129 -0.5,0.176 a 3.775,3.775 0 0 1 -0.449,0.107 3.014,3.014 0 0 1 -0.415,0.045 3.178,3.178 0 0 1 -0.408,-0.012 3.222,3.222 0 0 1 -0.461,-0.074 c -0.142,-0.035 -0.279,-0.071 -0.414,-0.112 -0.118,-0.032 -0.238,-0.063 -0.357,-0.093 a 2.27,2.27 0 0 0 -0.359,-0.064 0.5,0.5 0 0 0 -0.408,0.1 0.508,0.508 0 0 0 -0.154,0.334 l -0.086,0.924 a 2.048,2.048 0 0 1 0.708,-0.237 2.9,2.9 0 0 1 0.656,-0.018 3.265,3.265 0 0 1 1.132,0.3 2.624,2.624 0 0 1 0.8,0.581 2.088,2.088 0 0 1 0.453,0.766 2.066,2.066 0 0 1 0.1,0.858 z m -1.331,-1.3 a 1.357,1.357 0 0 0 -0.034,-0.478 1.027,1.027 0 0 0 -0.2,-0.4 1.07,1.07 0 0 0 -0.366,-0.284 1.523,1.523 0 0 0 -0.53,-0.138 c -0.113,-0.01 -0.241,-0.016 -0.385,-0.015 a 1.021,1.021 0 0 0 -0.424,0.095 0.885,0.885 0 0 0 -0.363,0.322 1.416,1.416 0 0 0 -0.2,0.665 l -0.107,1.148 a 1.356,1.356 0 0 0 0.032,0.452 1,1 0 0 0 0.194,0.388 1.076,1.076 0 0 0 0.366,0.284 1.521,1.521 0 0 0 0.546,0.142 1.292,1.292 0 0 0 0.97,-0.22 1.207,1.207 0 0 0 0.4,-0.867 z"
     fill="#26519d" />
  <path
     id="Path_45"
     data-name="Path 45"
     d="m 46.555,70.355548 a 1.645,1.645 0 0 1 -0.013,0.9 1.832,1.832 0 0 1 -0.443,0.725 2.749,2.749 0 0 1 -0.758,0.535 4.673,4.673 0 0 1 -0.969,0.344 3.67,3.67 0 0 1 -1.091,0.1 2.726,2.726 0 0 1 -0.934,-0.217 1.988,1.988 0 0 1 -0.695,-0.5 1.654,1.654 0 0 1 -0.382,-0.739 3.866,3.866 0 0 1 -0.095,-0.543 1.642,1.642 0 0 1 0.018,-0.441 1.483,1.483 0 0 1 0.137,-0.4 3.841,3.841 0 0 1 0.268,-0.437 l 1.139,0.1 a 1.41,1.41 0 0 0 -0.137,0.319 1.369,1.369 0 0 0 -0.044,0.313 1.752,1.752 0 0 0 0.032,0.349 q 0.035,0.188 0.09,0.421 a 0.806,0.806 0 0 0 0.457,0.588 1.564,1.564 0 0 0 0.979,0.007 1.625,1.625 0 0 0 0.837,-0.432 0.71,0.71 0 0 0 0.185,-0.68 l -0.956,-4 a 0.646,0.646 0 0 0 -0.4,-0.463 1.236,1.236 0 0 0 -0.781,-0.029 1.46,1.46 0 0 0 -0.742,0.386 0.633,0.633 0 0 0 -0.172,0.614 2.658,2.658 0 0 0 0.074,0.256 0.988,0.988 0 0 0 0.179,0.3 l -1.023,0.592 c -0.09,-0.064 -0.163,-0.123 -0.225,-0.174 a 1.111,1.111 0 0 1 -0.161,-0.163 0.872,0.872 0 0 1 -0.118,-0.2 1.714,1.714 0 0 1 -0.09,-0.284 1.687,1.687 0 0 1 -0.008,-0.789 1.73,1.73 0 0 1 0.343,-0.693 2.34,2.34 0 0 1 0.66,-0.551 3.473,3.473 0 0 1 0.949,-0.366 4.093,4.093 0 0 1 1.011,-0.118 2.542,2.542 0 0 1 0.872,0.159 1.777,1.777 0 0 1 0.663,0.444 1.62,1.62 0 0 1 0.379,0.741 z"
     fill="#26519d" />
  <path
     id="Path_46"
     data-name="Path 46"
     d="m 51.076,61.640548 a 0.729,0.729 0 0 0 0.216,0.23 0.7,0.7 0 0 0 0.245,0.1 0.916,0.916 0 0 0 0.26,0.012 c 0.089,-0.008 0.175,-0.02 0.259,-0.036 q 0.183,-0.033 0.376,-0.056 a 1.61,1.61 0 0 1 0.362,-0.007 0.9,0.9 0 0 1 0.321,0.091 0.635,0.635 0 0 1 0.25,0.236 1.923,1.923 0 0 1 0.187,0.372 1.479,1.479 0 0 1 0.071,0.366 2.69,2.69 0 0 1 0.855,-0.074 2.6,2.6 0 0 1 0.751,0.166 2.348,2.348 0 0 1 0.61,0.354 1.9,1.9 0 0 1 0.421,0.461 l 0.589,0.906 a 1.606,1.606 0 0 1 0.189,0.445 2.205,2.205 0 0 1 0.073,0.547 2.581,2.581 0 0 1 -0.306,1.222 2.828,2.828 0 0 1 -0.422,0.591 3.111,3.111 0 0 1 -0.631,0.52 3.128,3.128 0 0 1 -1.1,0.456 2.683,2.683 0 0 1 -1,0.009 2.167,2.167 0 0 1 -0.819,-0.334 1.983,1.983 0 0 1 -0.565,-0.571 l -0.566,-0.9 a 2.276,2.276 0 0 1 -0.284,-0.67 1.976,1.976 0 0 1 -0.033,-0.773 2.466,2.466 0 0 1 0.294,-0.825 3.22,3.22 0 0 1 0.693,-0.83 c -0.01,-0.088 -0.025,-0.162 -0.038,-0.223 a 1.491,1.491 0 0 0 -0.044,-0.163 0.651,0.651 0 0 0 -0.057,-0.122 c -0.022,-0.04 -0.048,-0.081 -0.075,-0.125 a 0.36,0.36 0 0 0 -0.178,-0.005 q -0.134,0.017 -0.315,0.046 c -0.148,0.024 -0.3,0.043 -0.457,0.057 a 1.656,1.656 0 0 1 -0.469,-0.03 1.282,1.282 0 0 1 -0.465,-0.2 1.552,1.552 0 0 1 -0.425,-0.467 z m 2.363,5.141 a 1.466,1.466 0 0 0 0.308,0.352 1.076,1.076 0 0 0 0.4,0.211 1.115,1.115 0 0 0 0.473,0.021 1.416,1.416 0 0 0 0.534,-0.217 1.387,1.387 0 0 0 0.433,-0.4 1.142,1.142 0 0 0 0.177,-0.447 1.057,1.057 0 0 0 -0.019,-0.435 1.31,1.31 0 0 0 -0.158,-0.372 l -0.527,-0.834 a 1.288,1.288 0 0 0 -0.3,-0.322 1.274,1.274 0 0 0 -0.411,-0.216 1.206,1.206 0 0 0 -0.485,-0.041 1.259,1.259 0 0 0 -0.531,0.2 1.455,1.455 0 0 0 -0.431,0.394 1.029,1.029 0 0 0 -0.18,0.441 1.071,1.071 0 0 0 0.033,0.461 1.656,1.656 0 0 0 0.2,0.449 z"
     fill="#26519d" />
  <path
     id="Path_47"
     data-name="Path 47"
     d="m 64.609,56.470548 q 1.866,1.525 0.156,3.62 a 3.392,3.392 0 0 1 -0.886,0.793 2.443,2.443 0 0 1 -0.927,0.334 2.088,2.088 0 0 1 -0.9,-0.073 2.355,2.355 0 0 1 -0.809,-0.437 l -0.258,-0.21 a 1.129,1.129 0 0 1 -0.237,-0.275 2.161,2.161 0 0 1 -0.19,-0.381 4.541,4.541 0 0 1 -0.149,-0.461 q -0.065,-0.246 -0.112,-0.51 l 1.053,-0.563 a 3.988,3.988 0 0 0 0.292,0.7 1.343,1.343 0 0 0 0.263,0.363 l 0.279,0.228 a 1.838,1.838 0 0 0 0.442,0.275 0.883,0.883 0 0 0 0.426,0.073 0.93,0.93 0 0 0 0.422,-0.154 1.9,1.9 0 0 0 0.433,-0.407 2.015,2.015 0 0 0 0.3,-0.478 0.886,0.886 0 0 0 0.066,-0.437 0.989,0.989 0 0 0 -0.175,-0.437 2.174,2.174 0 0 0 -0.431,-0.45 l -0.425,-0.346 a 1.508,1.508 0 0 0 -0.514,-0.284 2.275,2.275 0 0 0 -0.556,-0.1 3.21,3.21 0 0 0 -0.582,0.025 c -0.2,0.027 -0.4,0.056 -0.6,0.089 -0.225,0.038 -0.447,0.071 -0.67,0.1 a 3.623,3.623 0 0 1 -0.658,0.025 2.352,2.352 0 0 1 -0.634,-0.122 1.933,1.933 0 0 1 -0.6,-0.343 l -0.656,-0.533 0.878,-1.077 0.656,0.534 a 1.016,1.016 0 0 0 0.387,0.2 1.788,1.788 0 0 0 0.456,0.056 3.663,3.663 0 0 0 0.509,-0.037 c 0.177,-0.025 0.358,-0.051 0.541,-0.078 v 0 q 0.373,-0.06 0.751,-0.106 a 4.04,4.04 0 0 1 0.755,-0.022 2.989,2.989 0 0 1 0.746,0.148 2.248,2.248 0 0 1 0.711,0.4 z"
     fill="#26519d" />
  <path
     id="Path_48"
     data-name="Path 48"
     d="m 7.249,44.933548 -0.271,1.19 -1.1,-0.528 -1.092,0.528 -0.273,-1.179 -1.1,-0.528 0.76,-0.968 -0.278,-1.19 h 1.213 l 0.771,-0.981 0.782,0.981 h 1.2 l -0.268,1.176 0.768,0.964 z"
     fill="#26519d" />
  <path
     id="Path_49"
     data-name="Path 49"
     d="m 67.735,44.933548 -0.273,1.19 -1.1,-0.528 -1.089,0.528 -0.274,-1.179 -1.1,-0.528 0.753,-0.968 -0.276,-1.19 h 1.212 l 0.774,-0.981 0.784,0.981 h 1.2 l -0.268,1.176 0.77,0.964 z"
     fill="#26519d" />
</svg>
