<svg height="346.297379" viewBox="0 0 7595.1655 9103.499" width="288.76915" xmlns="http://www.w3.org/2000/svg"><path d="m3403.1157 9083.1221c-233-31-586-113-674-159-65-33-95-81-99-159-3-61-1-70 29-115 69-103 562-630 816-870 136-130 171-158 220-176 73-28 157-24 225 11 96 49 595 552 966 974 79 89 100 163 68 238-34 83-106 117-386 185-149 37-199 46-395 72-199 26-564 26-770-1zm-1375-473c-108-40-475-291-695-475-122-103-418-394-524-517-119-137-136-173-136-294 0-83 3-102 27-151 48-97 492-601 825-937 130-131 198-167 313-166 43 1 93 8 118 17 116 44 799 525 1197 844 205 164 255 211 276 258 25 55 25 154 0 204-11 20-141 159-289 307-261 261-471 485-681 725-103 119-144 153-219 182-51 20-161 21-212 3zm3317-5c-71-29-103-57-234-204-235-264-483-526-704-747-125-124-234-240-243-258-44-87-25-203 45-273 80-80 571-462 831-646 213-151 521-355 572-379 98-46 206-41 308 14 53 28 292 266 508 507 473 527 495 557 495 705 0 72-4 93-27 140-75 153-527 598-853 840-122 90-326 224-420 276-61 33-78 38-149 41-63 3-92-1-129-16zm-1645-1635c-58-19-74-30-252-176-340-277-679-528-1084-800-157-105-170-116-192-164-50-106-26-176 97-287 309-278 859-703 1224-946 138-92 184-112 276-120 133-12 210 28 584 297 459 331 1026 794 1066 871 38 76 19 190-43 245-12 12-99 72-193 134-348 231-743 525-1075 798-74 62-155 121-180 133-57 27-167 35-228 15zm-3347-71c-53-29-67-48-121-160-94-198-165-418-211-650-19-102-28-454-15-638 8-123 12-141 36-177 14-22 45-52 68-67 35-23 52-28 102-27 53 1 80 9 201 64 348 159 878 432 927 478 29 26 58 98 58 141 0 75-18 100-218 310-191 199-289 308-518 570-60 68-121 133-136 144-37 28-132 34-173 12zm6721-8c-22-12-76-65-120-118-169-199-315-361-510-563-110-115-209-220-218-235-54-80-38-193 36-258 50-43 432-245 736-389 290-136 345-157 396-151 61 6 129 50 158 100 24 40 26 58 37 252 11 209 7 372-12 515-21 150-92 400-165 578-97 236-144 291-249 291-34 1-63-7-89-22zm-5481-1385c-27-10-126-60-220-111-93-50-310-161-481-246-286-142-316-159-359-207-27-29-60-78-74-108-23-49-26-67-25-160 0-114 47-459 90-669 56-271 171-710 209-796 25-57 79-109 144-138 79-35 139-23 450 92 670 248 1293 536 1836 849 141 81 169 103 191 144 21 40 18 124-6 163-12 19-84 78-173 141-178 126-454 331-582 433-175 138-211 168-434 359-124 106-245 205-268 219-89 52-208 66-298 35zm4180-3c-64-22-97-43-161-98-46-41-45-41-259-222-286-243-638-514-952-734-78-55-149-112-158-127-28-48-30-117-3-168 28-55 75-85 433-277 312-168 756-380 1070-511 379-158 814-314 875-314 90 0 182 52 225 126 65 113 223 767 279 1156 53 371 53 409-1 520-51 105-86 129-474 322-195 97-412 209-483 248-184 104-269 121-391 79zm-2035-1540c-81-11-126-30-267-112-495-288-1010-545-1498-749-104-44-198-87-209-96-47-42-59-126-26-180 19-30 59-59 395-277 273-178 704-419 1115-624 272-136 350-170 415-184 179-38 270-18 557 121 167 80 593 303 666 347 10 6 76 43 147 84 348 198 792 487 819 532 28 47 26 108-4 152-29 43-28 42-280 148-388 162-788 355-1115 538-27 16-81 45-120 66-38 21-131 74-205 117-187 110-266 133-390 117zm-2365-1297c-28-6-62-39-69-68-10-39 130-451 262-769 75-182 230-513 267-571 61-95 171-156 283-156 90 0 376 79 778 216 332 113 341 118 351 193 9 69-18 93-232 202-463 237-872 476-1290 754-99 66-201 135-227 154-51 37-91 52-123 45zm4764-20c-25-15-95-61-155-102-425-291-970-613-1412-834-96-48-185-99-198-113-33-36-34-111-1-147 33-39 416-172 852-296 248-71 329-68 445 12 70 48 90 79 190 288 144 303 264 602 376 935 70 208 70 241-1 271-44 18-42 18-96-14zm-2464-1366c-38-8-99-25-135-38-218-83-501-184-665-238-167-55-194-67-225-100-34-35-60-94-60-137 0-47 54-124 173-244 274-277 524-430 817-499 426-101 925 119 1336 588 60 68 74 91 80 128 10 68-2 108-49 158-40 44-50 49-237 110-218 71-387 131-563 200-65 25-146 53-179 62-85 22-210 26-293 10z" fill="#327f37"/></svg>