<svg height="313.743179" preserveAspectRatio="xMidYMid meet" viewBox="0 0 460 453" width="318.732029" xmlns="http://www.w3.org/2000/svg"><g transform="matrix(.1 0 0 -.1 0 453)"><g fill="#01ffff"><path d="m2223 4515c-6-11-18-44-27-72l-18-53h-63c-35 0-66-4-70-10-3-5 19-25 50-44 30-20 55-40 55-46s-7-37-17-70c-9-33-14-63-10-66 3-3 31 13 62 37 47 35 60 41 73 31 38-25 105-62 109-58 2 2-6 32-18 67l-22 63 59 53 59 53h-76-76l-30 68c-26 59-31 65-40 47z"/><path d="m2837 4409-49-57-64 21c-35 12-66 18-70 14-3-3 10-28 30-55s36-54 36-59-18-33-41-63c-22-30-36-56-30-58 5-2 38 4 72 12 34 9 63 15 63 14 1-2 22-30 46-62l45-60 3 45c6 104 6 106 77 129 36 12 65 25 65 29s-28 18-62 32l-63 24-5 75-5 75z"/><path d="m1636 4408c-3-17-6-47-6-68 0-45-9-53-74-71-27-8-51-19-53-26-2-6 21-19 54-30l58-20 3-76c2-42 7-77 12-77 4 0 10 4 12 9s22 29 45 54l42 44 53-18c88-30 93-27 53 36-19 30-35 59-35 65s16 34 35 63c41 60 35 66-49 44l-56-15-22 31c-12 18-32 44-44 59l-22 27z"/><path d="m3388 4203-47-47-60 26c-37 16-63 23-67 16-3-5 8-32 25-59 17-28 31-53 31-56s-20-28-45-55c-45-51-57-75-31-65 8 3 41 9 73 12l58 6 35-60c19-33 38-61 42-61s10 26 13 58c10 89 10 88 73 101 93 18 94 25 18 63l-68 33 7 68c4 37 3 67-2 67-4 0-29-21-55-47z"/><path d="m1067 4148c16-92 13-98-50-135-31-19-55-38-52-44 4-5 26-9 50-9 62 0 95-15 95-42 0-13 6-45 13-73l14-50 16 30c9 17 25 46 35 65l20 35 78-3 78-2-52 53c-29 29-52 57-52 63s8 28 19 50c20 42 34 84 29 84-2 0-30-13-61-30-32-16-64-30-70-30-7 0-32 18-55 40-24 22-48 40-53 40s-6-18-2-42z"/><path d="m3724 3848c4-29 9-62 12-73 3-16-8-25-61-50-35-16-65-33-65-37 0-8 22-15 90-26l45-7 17-70c10-38 19-74 21-79 2-6 19 19 38 54l34 65 73-3c44-3 72 0 72 6s-3 12-7 14c-5 2-26 22-47 46l-40 42 29 60c16 33 26 62 23 65-2 3-32-7-66-22l-62-26-49 46c-28 26-53 47-57 47s-3-24 0-52z"/><path d="m776 3805-49-44-59 30c-33 17-62 29-64 26-2-2 7-32 21-67l25-64-45-46c-25-25-45-49-45-54 0-4 31-5 69-1l70 7 32-66c18-36 34-64 37-62 2 3 12 35 21 73l17 68 73 12c40 7 75 14 77 15 2 2-26 19-63 38l-65 34 7 60c3 33 7 65 8 70 5 23-22 11-67-29z"/><path d="m4110 3392v-68l-70-23c-39-12-68-26-65-31 2-4 34-18 70-31l65-23v-73c0-40 4-73 9-73s26 25 46 55c21 30 42 55 47 55 4 0 35-7 68-17 33-9 63-14 66-11 3 4-12 32-34 64l-40 57 39 56c46 65 39 71-47 46-31-9-57-15-58-13-20 30-81 98-87 98-5 0-9-31-9-68z"/><path d="m432 3355c-24-30-51-55-61-55s-40 7-66 15c-27 8-51 12-54 10-2-3 12-29 32-60 21-30 37-58 37-62s-16-32-36-61-34-55-31-58 33 4 67 16c70 25 74 23 126-51 15-21 30-39 35-39 4 0 9 33 11 72l3 73 62 25c34 14 65 28 68 31 3 4-25 16-63 28l-69 21-9 75-9 76z"/><path d="m826 2948c-19-27-21-85-3-101 7-7 26-19 42-27 18-9 39-33 52-62 18-37 29-48 55-53 64-13 197-54 233-71 23-11 49-36 71-71 27-42 45-58 87-77 84-39 83-36 164-271 52-153 83-274 83-330 0-41-12-64-56-112-15-17-24-38-24-59 0-31 3-34 42-45 25-6 56-8 78-3 45 10 201 11 263 2 47-8 47-8 65 29 12 27 28 41 56 52l38 15 47-55c25-30 62-70 82-89s45-49 57-66c17-25 35-34 100-52 106-29 155-28 252 8 67 25 96 30 169 30 140 0 262 32 312 83 41 41 114 87 137 87 45 0 113-40 145-86 34-49 59-60 162-70 50-5 85-15 122-36 41-23 59-28 87-23 50 10 62 23 80 85l16 54-115 112c-106 103-115 114-115 149 0 29 7 44 36 73 31 31 34 39 25 59-11 25-25 32-171 88-156 61-197 97-154 139 9 10 16 36 17 62 3 62-29 88-105 87-61-1-91 12-133 57-34 36-98 69-134 70-14 0-33-7-43-17-10-9-18-12-18-6 0 16-47 33-91 33s-100-25-170-76c-30-22-64-36-93-40-49-7-56-1-70 68-5 22-20 34-80 61-40 19-110 47-155 62-72 24-84 31-112 71-40 58-79 78-159 81-36 1-92 5-125 10-33 4-128 4-212-1-135-8-153-7-168 7-35 36-104 66-185 82-54 11-108 29-148 52-53 29-79 36-155 44-144 14-164 12-181-13z"/><path d="m165 2891-27-71h-71l-72-1 56-52 56-52-13-44c-7-24-16-52-19-62-10-30 17-23 70 17l47 36 29-21c16-11 42-31 59-43 16-12 32-19 36-16 3 4-3 36-14 71l-20 66 60 48 60 48-75 3-75 3-22 62c-13 34-26 66-30 70-4 5-20-23-35-62z"/><path d="m4376 2906c-9-30-16-59-16-65 0-7-27-11-74-11-41 0-77-4-80-8-2-4 20-25 50-47 60-44 62-50 39-135-8-30-13-56-10-58 2-2 28 15 59 37 30 23 59 41 63 41 5 0 32-16 61-36 30-20 56-33 59-30 4 3-3 37-14 75l-20 68 26 17c30 18 81 63 81 70 0 3-32 6-72 8l-72 3-24 63c-13 34-28 62-32 62-5 0-16-24-24-54z"/></g><g fill="#010173"><path d="m2155 3950c-331-24-668-150-930-349-33-25-65-50-71-56-6-5-36-32-68-60-53-47-190-199-229-255-121-173-197-320-255-495-152-455-110-982 110-1394 264-491 700-822 1238-939 194-43 379-51 589-26 669 78 1227 510 1467 1136 41 108 90 306 104 418 23 195 5 482-41 650-11 41-24 91-29 110-13 53-77 206-118 285-290 558-839 923-1469 975-128 10-147 10-298 0zm403-86c275-41 547-154 791-329 90-64 281-257 357-360 426-577 453-1348 69-1950-99-154-257-326-393-427-31-24-59-45-62-48-14-16-148-94-236-138-257-129-494-178-815-169-193 5-289 20-454 71-645 198-1132 775-1215 1439-20 155-8 446 23 577 64 268 165 483 326 690 269 347 661 576 1100 645 121 19 381 18 509-1z"/><path d="m2048 3625c-283-50-513-175-641-347-70-94-110-165-104-182 5-13 188-62 342-90 112-21 248-36 325-36 66 0 230 23 285 40 17 5 102 32 189 59 104 33 177 51 210 51 73 0 127 11 123 24-7 21-113 67-170 73-33 3-108-2-182-12-70-10-147-15-173-12-57 6-164 45-157 57 8 13 72 29 165 41 198 24 412-46 695-229 135-88 227-134 280-140 47-5 105 13 104 32 0 6-61 51-136 99-74 49-133 91-130 93 3 3 26-6 50-20 72-43 177-46 177-6 0 5-52 43-115 85s-115 77-115 78c0 2 17 1 39-1 40-4 55 6 45 31-6 17-134 110-221 161-86 50-228 104-353 132-132 31-410 41-532 19z"/><path d="m1321 1388c-13-7-24-17-24-23 0-5 54-46 122-91 67-44 127-86 134-93 13-13 11-12-67 23-22 10-54 20-70 23-32 5-86-10-86-25 0-4 50-41 111-82s112-77 114-80-15-5-38-5c-75 0-59-27 73-120 273-192 634-272 995-220 268 38 507 169 651 356 42 55 94 146 94 166 0 16-42 30-186 62-249 54-343 64-514 58-165-6-247-22-437-87-125-43-204-60-279-60-81 0-81-13 1-55 64-33 36-31 395-23 135 3 148 1 195-20 49-23 49-24 25-34-40-15-180-38-238-38-111 0-299 55-428 125-34 18-127 73-206 123-78 49-160 97-181 106-55 23-127 29-156 14z"/><path d="m116 2382c-3-5-6-59-8-121-3-130 3-142 82-142 25 0 71-2 103-5l59-6-4 29c-3 25-7 28-48 33l-45 5 2 63 1 62h-29c-29 0-29 0-29-61 0-52-2-60-17-57s-19 18-23 103c-4 82-8 100-22 103-9 2-19-1-22-6z"/><path d="m4300 2341c-39-11-51-46-48-142 4-123 10-129 145-129h104l-3 28-3 27h-82c-45 0-86 5-92 10-12 12-18 125-7 143 5 8 36 12 92 12h84v30 30l-82-1c-46-1-94-4-108-8z"/><path d="m158 2013c-9-2-22-18-28-34-16-38 0-167 25-206 16-24 21-25 81-20 83 6 94 16 94 83 0 41 5 58 21 73 26 24 21 55-9 59-41 6-62-24-62-88 0-62-6-70-60-70-32 0-40 18-40 98 0 46 2 52 21 52 17 0 20 4 15 23-3 12-6 25-6 30 0 7-24 8-52 0z"/><path d="m4256 1958c-16-25-36-130-36-189 0-22 7-42 18-52 21-19 156-39 187-27 24 9 35 47 50 165 3 28 8 62 11 78 5 24 3 27-20 27-29 0-28 1-47-128-6-45-15-84-19-87-11-7-110 11-121 22-8 8-7 32 3 79 11 60 16 69 38 74 18 4 26 13 28 33 3 25 1 27-37 27-31 0-44-5-55-22z"/><path d="m270 1669c-30-11-61-27-68-37-18-23-10-74 23-162 33-86 58-107 109-90 54 18 59 52 22 165-13 39-20 74-15 79 18 20 36-7 67-103 27-80 37-101 52-101 10 0 22 4 25 10 9 14-53 205-76 234-25 31-59 32-139 5zm29-131c25-72 26-98 7-98-14 0-56 106-56 142 0 41 29 15 49-44z"/><path d="m4234 1608c-6-7-21-32-34-55-13-24-32-43-43-45-26-4-42-54-20-62 30-12 52-5 77 25 14 17 26 36 26 43s6 20 13 30c12 17 16 17 51 2s38-19 33-45c-13-66-35-101-61-101-19 0-27-7-32-25-8-30-7-31 26-40 18-4 34 0 52 15 36 28 70 121 66 179-3 42-6 48-40 64-52 25-101 32-114 15z"/><path d="m398 1307c-93-52-91-50-83-76 9-29 26-27 109 19l73 40 19-21c19-21 18-21-2-37-12-10-36-25-53-34-28-15-30-20-21-38 14-26 24-25 76 5 36 21 44 23 54 10 19-23 7-38-69-79-73-40-80-50-58-79 11-16 16-15 62 9 146 78 153 91 100 197-38 76-84 127-113 127-9 0-52-20-94-43z"/><path d="m4054 1276c-19-19-34-43-34-54 0-12-8-27-19-34-24-17-81-119-81-145 0-36 108-113 158-113 36 0 74 38 102 103 30 67 22 86-50 127-64 36-71 47-42 73 17 15 23 14 86-23 38-22 74-40 81-40 15 0 29 35 20 49-9 15-151 91-170 91-9 0-32-15-51-34zm45-171c23-14 41-29 41-33 0-14-40-73-54-78-7-3-30 6-50 20-20 13-42 26-48 28-7 3-5 16 7 38 35 69 35 69 104 25z"/><path d="m598 979c-85-74-81-94 41-221 55-58 96-65 131-21 29 37 20 63-47 146-44 54-53 70-44 80 10 9 29-6 90-72 75-81 79-84 100-69l21 15-30 34c-16 19-47 55-67 81-76 93-114 99-195 27zm75-125c73-87 61-119-15-38-51 54-61 71-53 84 11 17 20 11 68-46z"/><path d="m3889 862c-15-9-47-39-71-67l-45-49-32 27c-37 30-42 32-59 15-21-21-13-34 69-107 81-72 103-81 122-50 8 13 3 23-23 46l-33 29 48 55c27 30 55 56 63 57 7 2 24-6 37-18 26-24 51-21 62 7 9 22-52 73-87 73-14 0-37-8-51-18z"/><path d="m847 678c-60-68-64-74-50-90 9-10 20-18 26-18 5 0 35 28 67 62 56 62 57 62 82 46 32-21 88-77 88-88 0-5-25-37-55-72l-55-63 21-20 20-20 60 65c62 67 75 94 64 129-17 55-123 141-173 141-23 0-42-14-95-72z"/><path d="m3576 634c-38-20-54-24-67-16s-22 6-38-10c-21-19-21-21-5-39 24-27 71-24 117 8l39 27 24-27c32-38 30-50-13-84-55-43-62-46-79-32-12 9-20 9-39-1-30-16-31-20-4-49 30-32 73-23 144 29 57 42 88 90 77 119-10 31-74 101-90 101-10 0-39-12-66-26z"/><path d="m3197 438c-94-45-106-54-101-72 4-12 8-23 11-26 2-2 46 17 99 43 99 49 120 55 127 35 2-8-28-30-72-54-42-23-85-53-96-68-20-27-20-27 0-64 29-54 61-54 166 0 53 27 89 53 98 70 15 25 13 31-19 99-33 67-56 89-94 89-7 0-60-23-119-52zm176-102c3-8 0-19-6-24-22-18-116-62-132-62-35 0-10 30 53 63 77 42 78 42 85 23z"/><path d="m1442 388c-17-21-62-140-62-164 0-13 11-30 28-42 52-36 216-97 232-87 18 11 11 35-12 45-13 5-60 23-105 41-50 20-83 39-83 47 0 17 19 14 114-23 99-37 133-26 150 51 10 44-14 67-112 109-88 37-133 44-150 23zm174-93c27-18 32-43 8-52s-154 47-154 67c0 34 20 40 72 20 27-10 60-26 74-35z"/><path d="m2843 299c-27-10-28-17-7-48 15-21 23-23 87-19l71 3 9-32c13-43-1-58-65-74-46-11-53-10-64 6-9 12-20 16-38 11-29-7-34-32-12-61 18-25 83-23 163 5 95 33 108 66 64 160l-17 35-72-2c-40-1-72 2-72 6 0 14-23 19-47 10z"/><path d="m1843 264c-14-38 10-68 70-88 60-19 65-29 51-83-7-26-32-28-104-10-38 10-45 16-45 37s-5 25-30 25c-26 0-30-4-33-31-4-44 31-69 117-84 77-14 136-7 145 17 4 9 9 42 13 72 6 65 3 70-72 98-34 13-49 24-47 35 1 9-7 18-20 22-34 9-38 8-45-10z"/><path d="m2410 198c1-74 21-173 38-186 24-19 197-10 241 12 28 15 31 21 31 60 0 63-6 73-39 68-27-4-29-6-24-41 6-45-1-49-93-58-74-7-78-2-89 105-7 71-7 72-36 72-26 0-29-3-29-32z"/></g></g></svg>