<svg height="315.576421" preserveAspectRatio="xMidYMid meet" viewBox="0 0 583 581" width="316.880456" xmlns="http://www.w3.org/2000/svg"><g transform="matrix(.1 0 0 -.1 0 581)"><path d="m2635 5795c-523-51-1032-247-1455-558-788-580-1236-1539-1172-2505 17-265 57-478 134-712 116-356 267-636 504-930 243-303 521-536 867-727 738-409 1653-471 2447-166 915 351 1594 1135 1805 2083 56 253 79 620 55 881-49 545-240 1042-568 1481-97 131-128 165-281 318-200 199-395 347-636 482-249 139-566 256-850 312-246 48-602 66-850 41z" fill="#f1592a"/><g fill="#fff"><path d="m2770 5624c-563-38-1067-222-1498-546-604-455-985-1123-1073-1883-14-120-14-444 0-575 24-218 83-467 161-673 42-112 126-297 135-297 3 0 23 9 44 20l39 19-60 132c-457 1002-234 2191 553 2954 161 156 261 234 494 384 71 46 293 153 405 196 313 119 596 170 950 169 364 0 645-53 975-181 107-42 326-151 396-199 28-19 53-34 55-34 5 0 138-94 188-133l39-31 28 34c16 19 29 37 29 41 0 10-153 121-255 186-340 216-744 357-1155 403-98 11-369 19-450 14z"/><path d="m2710 5363c-475-46-894-202-1255-467-473-346-805-841-944-1406-117-478-87-986 87-1450 40-107 119-280 128-280 13 0 85 42 82 48-295 559-351 1258-147 1848 127 369 299 645 568 915 286 285 595 474 971 593 237 75 451 107 730 107 533 0 1001-161 1458-503l44-33 29 33c36 40 35 43-66 117-362 266-782 428-1235 475-88 9-370 11-450 3z"/><path d="m3615 4956c-11-8-51-34-90-58-38-25-139-90-223-144s-181-117-217-139l-64-40-1-77v-78h-119c-232 0-405-39-617-140-137-64-221-122-367-250-16-14-59-61-97-105-255-302-368-650-338-1040 20-267 116-517 280-737 38-50 67-92 66-93-2-1-50-11-108-23-107-22-360-89-368-97-7-6 38-69 92-131l45-51 148 38c410 103 807 150 1273 150 462 0 872-51 1297-159l112-29 29 31c39 42 116 146 111 150-6 6-254 72-364 96-55 12-103 24-108 27-4 2 8 23 27 46 133 164 237 379 288 598 30 130 33 450 4 579-70 322-238 600-490 814-37 31-90 71-117 87l-49 31v379c0 208-3 379-7 378-5 0-17-6-28-13zm-175-1596v-1220h-47c-27 0-72 3-100 6l-53 7v1151 1152l93 61c50 34 95 62 100 62 4 1 7-548 7-1219zm-457 844 37-7v-53-54l-135-87c-74-49-168-109-210-135l-75-47v-203l-1-203-96-60c-141-88-316-202-331-215-10-9-13-115-12-503 0-271 1-499 0-508 0-10-12-19-32-23-28-6-37-1-81 41-61 59-155 184-202 267-187 335-202 742-40 1093 157 339 481 595 850 672 142 29 250 37 328 25zm777-354c198-198 319-451 351-734 26-238-37-519-164-730-78-130-224-293-253-282-9 3-22 6-30 6-11 0-14 138-14 915 0 625 3 915 10 915 6 0 51-40 100-90zm-740-855v-835h-100-100v773 772l66 40c36 22 80 50 97 62 18 12 33 22 35 23 1 0 2-376 2-835zm-440-349v-493l-67-6c-38-4-83-7-100-7h-33v439 440l93 60c50 33 95 61 100 61 4 0 7-222 7-494z"/><path d="m4716 4889c-33-9-101-70-121-110-7-14-16-65-19-113-4-80-8-92-33-118l-27-28 27-27 27-27 30 29c37 35 50 79 50 166 0 63 2 69 38 107 47 51 71 59 105 31 37-29 36-70-3-102-16-14-39-28-49-32-17-5-18-10-9-37 10-27 14-30 44-25 80 13 138 100 114 171-27 83-104 134-174 115z"/><path d="m2765 4817c-27-65-28-66-77-76-27-6-59-11-71-11-19-1-13-9 32-50l54-49-6-71-6-71 64 35 64 35 58-28c32-16 60-24 62-19 1 5-2 29-8 53-17 66-14 77 29 125 22 25 40 48 40 51 0 4-31 9-69 13-67 7-69 8-85 44-9 20-25 48-35 61l-18 23z"/><path d="m2255 4701-7-68-59-28c-32-16-59-32-59-37s27-20 59-34c58-25 60-28 70-76 6-27 11-58 11-68 0-29 7-25 57 31 50 54 46 54 156 33 35-7 34 3-4 68l-31 52 28 58c15 32 25 60 22 64-3 3-34 0-68-7l-61-12-48 47c-25 25-49 46-53 46-3 0-9-31-13-69z"/><path d="m4913 4625c-74-32-139-130-119-180 4-10-3-19-19-27-29-13-34-26-33-99 1-38 7-64 19-80 17-23 19-23 36-6 13 13 18 31 17 67-2 58 12 68 59 40 56-35 109-24 183 36 30 25 47 48 54 75 21 77-25 157-101 179-44 13-57 12-96-5zm109-82c31-28 23-67-23-106-22-19-48-37-58-40-47-12-91 41-70 86 15 32 78 77 107 77 14 0 34-7 44-17z"/><path d="m3766 4463 15-67-52-52c-59-59-61-56 44-69 46-6 48-8 78-66 16-33 33-58 37-55 6 3 49 89 57 113 0 1 29 6 64 12s66 13 69 15c2 3-17 25-43 50l-47 46 10 67c5 38 8 69 7 71-2 2-30-11-64-27l-61-31-60 30c-33 16-61 30-63 30-3 0 2-30 9-67z"/><path d="m1790 4506c0-7 5-37 10-67l10-53-50-51-51-52 71-12 71-13 30-59c16-33 33-58 37-55 6 3 49 89 57 113 0 1 29 6 64 12s66 13 69 16-16 27-42 54l-47 48 11 63c6 34 9 64 6 67s-31-9-62-27l-56-32-58 31c-66 35-70 36-70 17z"/><path d="m5105 4320c-27-17-83-49-122-71-114-64-134-106-94-195 35-78 118-108 175-63 33 26 33 44 1 65-20 13-28 14-39 4-24-19-59-8-74 23-8 16-11 34-9 41 3 8 58 44 122 81 84 48 124 65 140 61 25-6 55-59 48-85-5-21-53-51-82-51-18 0-20-4-15-27 10-40 12-43 40-43 37 0 89 25 108 51 35 50 14 148-43 203-43 42-94 43-156 6z"/><path d="m4144 4158-9-73-57-30c-32-16-58-33-58-36s26-17 58-31c55-24 60-28 70-71 7-25 12-55 12-66 0-31 11-26 60 25l45 46 68-7c37-3 67-3 67 1 0 3-14 32-31 63l-30 56 29 60c16 33 28 61 27 63-2 2-20-1-41-6-83-21-93-22-106-10-8 7-32 30-54 51l-41 38z"/><path d="m1587 4165c-51-49-52-49-159-19-24 7-23-11 7-75l25-53-30-56c-16-31-30-58-30-62 0-3 29-2 65 4l66 9 47-46c26-26 50-47 54-47 3 0 9 23 12 52 10 71 17 80 80 107 31 13 56 26 56 29 0 4-27 21-59 39-61 34-71 52-71 136 0 15-3 27-7 27-5 0-30-21-56-45z"/><path d="m5092 3964c-58-29-82-63-82-116 0-40 31-94 58-102 19-6 19-9 5-36-21-42-2-98 38-114 21-7 27-15 23-26-24-54-5-126 39-155 57-37 179-9 246 55 91 89 111 240 55 413-17 50-34 59-69 34-17-13-17-16-1-63 10-27 20-83 23-125 11-146-39-221-164-249-40-10-73 11-73 46 0 20 9 29 43 44 23 11 50 20 61 20 16 0 17 5 11 38-4 20-8 39-10 41s-25-4-51-13c-59-20-88-20-104-1-23 28 2 61 62 80 29 10 55 19 56 21 2 1-2 18-9 37l-12 35-55-19c-61-21-88-18-97 12-11 33 4 56 46 73 52 21 95 20 148-4 24-11 45-19 45-18 22 38 23 57 8 71-58 52-161 61-240 21z"/><path d="m4425 3765c-15-37-33-68-39-70s-38-9-71-16l-59-11 53-47 54-48-7-72-6-72 42 26c81 50 81 50 144 21 31-14 59-24 62-21s-2 31-11 62c-18 64-17 66 43 132 16 19 28 37 24 40-3 3-33 8-67 11l-61 5-36 63-37 63z"/><path d="m1311 3751-31-59-70-7c-39-4-70-10-70-13 0-4 21-28 46-53l47-48-17-65c-9-36-16-67-16-70s29 9 65 25l65 31 33-20c19-11 46-28 62-38l28-18-6 74-6 75 49 40c27 22 50 43 50 46 0 4-30 12-66 19l-66 13-29 63c-15 35-30 64-32 64s-18-27-36-59z"/><path d="m5472 3388c-23-5-48-18-54-28-11-17-13-17-39 2-22 17-38 20-85 16-49-4-62-10-86-37-23-26-28-40-28-85 0-38 6-61 20-78 18-24 19-28 3-66-28-72 4-149 74-179 38-16 121-9 165 14 58 29 76 123 37 193-27 48-54 60-137 60-74 0-86 5-96 37-11 36 26 65 77 61 37-3 43-7 52-33 6-17 16-30 23-29 6 1 21 2 32 3 14 1 20 8 20 24 0 32 18 47 57 47 45 0 64-33 71-119 4-60 2-70-17-88-12-11-25-37-28-58-6-36-5-37 18-30 74 21 104 80 95 188-5 67-33 144-61 167-23 19-69 27-113 18zm-52-287c14-27 13-66-2-79-21-17-103-25-126-13-40 22-40 85 1 101 12 5 43 9 69 9 37 1 50-3 58-18z"/><path d="m4575 3299-39-51-68 6c-37 3-68 2-68-2s14-29 30-55c36-57 36-64 9-128-12-27-20-52-17-54 3-3 33 2 67 11 69 17 62 20 137-49l31-28 6 38c4 21 7 53 7 71 0 29 7 37 61 71l60 38-58 23c-71 28-76 35-92 105-7 30-16 55-20 55s-24-23-46-51z"/><path d="m1180 3340c-1-3-9-34-18-70l-17-64-62-25c-35-13-63-27-63-30s27-21 60-40l60-34 1-61c1-34 1-64 0-68-2-16 13-7 64 36l52 45 62-16c34-9 64-14 66-11 3 3-7 32-21 65l-26 61 36 53c20 30 36 57 36 60s-31 4-70 1c-76-5-63-13-141 81-10 12-19 20-19 17z"/><path d="m5228 2873c-37-42-49-100-29-132 6-10 5-22-5-35-17-25-18-58-2-74 9-9 7-17-10-35-30-32-28-37 16-37 25 0 45 7 55 18 19 21 22 57 7 67-5 3-10 13-10 21 0 11 14 14 60 14h60v35 35h-50c-37 0-52 4-59 18-18 34 1 44 70 38 35-3 99-8 142-12 47-4 84-12 93-21 15-15 19-60 6-79-20-31-87-37-119-12-14 11-33-19-33-51 0-28 29-41 93-41 41 0 61 5 82 22 76 60 72 210-7 242-29 12-240 36-317 36-15 0-35-8-43-17z"/><path d="m4586 2815-49-34-65 25c-35 13-66 24-68 24-1 0 6-25 17-57 10-31 19-63 19-71s-18-36-40-62-40-51-40-54 30-6 68-6h67l39-60c21-33 39-60 41-60s13 29 26 65l23 65 55 15c89 25 86 23 63 43-12 9-38 28-57 42l-36 25 5 68c6 78 3 80-68 32z"/><path d="m1155 2772 7-68-58-44c-65-49-67-44 34-70 45-12 47-15 91-125 7-18 13-13 44 36 38 60 57 69 138 69 22 0 39 3 39 6s-19 28-41 55l-41 50 17 60c9 34 14 63 11 66s-32-4-65-17l-61-22-54 36c-30 20-57 36-61 36-3 0-3-31 0-68z"/><path d="m5255 2463c-17-36-17-37 6-56 25-20 49-19 126 4 57 17 112 3 133-33 13-25 13-31 0-55-22-40-52-39-235 2-87 19-159 34-161 32-6-6-15-77-10-77 4 0 79-16 168-36 192-43 228-42 274 9 67 73 48 184-38 226-55 26-112 27-160 1-36-19-37-19-61 0l-25 20z"/><path d="m4297 2403c-4-3-7-36-7-72v-66l-55-34c-31-19-53-37-50-40 4-3 34-15 68-27l61-20 19-62c10-34 21-62 26-62 4 0 23 22 42 50l34 49 72 3 73 3-40 56-40 56 21 62c12 34 19 64 17 66-3 3-33-5-67-16l-62-21-42 33c-23 18-47 36-53 41-6 4-14 5-17 1z"/><path d="m1460 2360c-37-28-61-39-75-36-11 3-41 12-67 20-27 8-48 12-48 8s10-34 22-68l22-61-37-50c-20-28-37-53-37-57 0-3 31-6 69-6h69l36-50c20-27 40-50 45-50s12 12 15 28c25 102 21 97 86 116 33 10 62 22 65 26 2 4-20 24-50 44l-54 38-3 69-3 70z"/><path d="m5150 2212c-40-7-77-39-94-82-42-105-2-161 159-223 141-53 197-54 249-2 17 18 17 19-6 31-13 8-37 11-55 8-35-7-70 2-185 48-93 36-116 57-102 96 5 15 21 33 36 40 23 11 37 9 114-18 106-36 146-59 159-88 6-13 24-26 40-31 27-7 30-5 33 17 9 66-43 116-175 166-95 36-134 45-173 38z"/><path d="m4994 1911c-52-31-78-77-79-137 0-56 19-88 64-105 39-15 61-2 61 37 0 26-4 34-18 34-45 0-54 45-18 87l24 28 36-18c40-19 55-42 37-60s-13-37 15-49c23-11 28-9 48 17l23 29 49-25c58-28 68-59 34-102-28-35-64-35-96 0-26 29-46 26-68-9-25-41 65-105 133-94 87 14 154 155 106 223-23 33-103 73-145 73-30 0-39 5-48 25-12 25-80 64-112 65-8 0-29-9-46-19z"/><path d="m931 1734c-25-32-26-55-5-119 16-46 16-49-2-62-17-12-21-11-39 12-25 30-36 31-59 6-16-18-16-21-1-44 21-32 9-57-40-86-54-32-82-28-102 14-16 34-16 36 4 63 11 15 30 28 42 30 29 5 31 68 2 77s-98-30-116-65c-41-80 18-198 109-215 63-12 156 47 172 109 4 17 12 22 39 22 42 0 75 28 75 63 0 14-7 48-15 74-9 31-11 55-6 65 6 12 2 27-14 50l-23 33z"/><path d="m2600 1714c-147-11-379-37-512-60-169-28-374-71-396-83-10-6 16-30 97-90l112-82 102 20c303 59 556 81 914 81 325 0 611-26 913-84l74-14 81 54c44 30 95 67 114 83l34 30-44 11c-145 39-490 98-709 120-106 11-678 21-780 14z"/><path d="m4741 1559c-25-33-25-33 23-60 39-23 77-27 149-17 73 11 77 10 122-16 57-34 74-66 55-102-33-61-90-49-144 30-13 19-15 19-40 2-29-18-28-38 2-84 19-29 82-62 118-62 40 0 87 26 112 64 52 76 45 136-21 189-71 57-80 60-189 52-89-6-101-5-131 14l-34 21z"/><path d="m975 1416c-44-19-117-83-137-120-22-40-23-108-2-152 19-39 21-40 45-18 14 13 17 26 12 64-5 44-3 50 32 88 55 62 100 68 123 16 16-33 18-29-33-83l-45-48 28-26 28-27 48 40c55 45 50 44 79 29 47-25 48-55 6-103-35-41-88-60-126-45-19 7-32 6-51-7-24-16-24-16-5-36 38-37 122-43 184-12 37 19 99 90 100 117 2 37-2 61-18 90-16 33-68 67-100 67-18 0-23 6-23 25 0 15-7 39-15 55-10 18-11 30-5 30 22 0 86-39 133-80 46-41 48-42 72-26 14 9 25 20 25 25 0 18-106 104-155 127-57 27-151 32-200 10z"/><path d="m4630 1393c-30-11-90-77-90-99 0-17-9-25-33-33-35-12-76-50-96-88-18-36-13-76 17-124 39-60 165-175 209-190 76-25 161 32 170 114 7 60-12 93-113 199-46 47-84 93-84 101 0 19 32 47 54 47 24 0 110-73 159-134 34-43 38-56 34-87-4-30 0-42 18-59l24-22 20 33c41 68 21 127-81 234-97 102-149 129-208 108zm23-295c91-94 102-121 63-154-33-29-49-24-123 41-111 99-141 169-86 199 37 19 52 11 146-86z"/><path d="m2605 1273c-79-5-339-34-344-38-10-11 180-67 309-90 124-23 429-31 558-15 146 17 389 76 415 100 9 8-138 27-313 40-115 9-507 11-625 3z"/><path d="m1393 1134c-32-16-74-62-125-139-61-90-73-163-38-220 27-44 46-50 66-20 12 18 13 28 5 44-25 46-7 101 69 201 49 65 76 83 105 68 51-27 46-57-25-153l-59-80 31-27 31-27 48 67c26 37 55 77 64 90 19 26 66 30 89 6 29-29 21-51-57-157-52-72-88-97-135-97-30 0-68-32-58-49 4-5 23-15 42-21 78-26 160 27 246 159 40 62 48 81 48 122 0 36-6 55-25 78-29 33-84 55-121 48-20-3-24 0-24 18 0 31-37 75-76 91-42 18-61 17-101-2z"/><path d="m4098 971c-35-20-35-28 2-73 30-36 41-41 153-73 51-14 61-21 87-62 36-56 37-73 7-101-48-45-107-12-124 68-5 29-8 31-36 26-17-3-33-8-35-11-2-2-1-25 3-50 9-66 68-125 124-125 53 0 89 15 128 52 41 39 50 82 29 133-38 89-83 124-191 147-37 8-59 20-85 48-34 36-36 36-62 21z"/><path d="m1875 874c-5-1-22-5-37-8-16-4-34-18-42-35-15-27-14-28 19-44 32-15 34-15 48 6s15 21 40 4c33-21 34-41 6-61-16-10-28-12-46-5-66 25-135 0-176-63-98-151 87-323 240-223 30 20 63 94 63 141 0 19-7 49-16 66-16 31-16 33 5 49 55 45 27 135-51 161-23 8-47 14-53 12zm18-233c25-25 25-71 0-114-26-44-60-54-105-33-50 24-64 61-44 111 9 21 24 44 34 52 23 19 90 10 115-16z"/><path d="m3887 855c-44-15-64-30-72-55-4-14-14-17-48-13-50 5-105-20-125-57-30-57 8-186 76-263 71-78 179-99 298-57 72 25 78 31 63 63s-13 32-93 6c-120-39-202-4-252 109-26 60-31 101-12 120 31 31 73-2 102-79 33-90 109-129 189-96 81 34 98 122 45 227-48 93-98 121-171 95zm98-128c37-83 38-94 16-116-41-41-74-22-111 63-26 61-23 97 9 113 35 17 59 1 86-60z"/><path d="m2215 701c-86-21-153-89-179-180-9-31-16-68-16-82 1-42 37-108 72-129 43-26 46-25 59 7 9 24 7 30-15 46-48 35-42 150 9 183 23 15 27 15 51 0 34-23 38-38 24-96-7-28-11-53-9-55s20-6 40-10c36-7 37-6 44 31 13 72 47 102 92 81 63-28 19-168-57-184-37-7-60-59-30-68 34-11 100 15 140 55 29 29 41 51 50 93 14 67 6 99-32 137-34 35-87 47-136 32-32-10-37-9-54 13-10 13-27 27-38 30-11 4-20 10-20 15 0 17 75 23 150 12 41-5 76-10 76-9 1 1 5 16 8 33l7 31-70 11c-77 13-120 14-166 3z"/><path d="m3307 676c-68-25-88-55-89-137 0-63 30-206 53-251 19-37 62-68 94-68 21 0 19 45-4 67-23 23-36 64-56 181-17 98-13 122 25 142 29 16 67 2 79-28 15-40 41-179 41-220 0-19-7-43-16-53-13-14-13-21-1-50l14-34 36 36c47 47 54 88 34 211-22 129-44 179-90 201-42 20-69 21-120 3z"/><path d="m2633 640c-42-17-73-92-54-129 10-17 15-19 41-9 21 7 30 17 30 32 0 31 19 46 56 46 46 0 57-19 50-87-3-32-8-93-12-136-7-85-16-97-73-97-45 0-64 25-57 74 4 22 12 43 18 47s-2 14-20 23c-30 15-33 15-51-3-28-28-36-84-20-129 37-97 226-111 263-20 8 18 19 95 26 170 13 157 8 179-50 209-37 20-109 24-147 9z"/><path d="m2911 642-34-3 7-172c8-187 17-224 68-261 40-28 113-27 162 4 81 49 89 168 18 243-23 24-25 31-15 57 11 28 10 29-29 35-29 5-43 3-49-6-18-28-8-71 26-120 37-53 43-90 24-133-12-25-49-41-77-32-34 11-41 43-48 216-4 94-10 172-13 173s-21 1-40-1z"/></g></g></svg>