<svg height="306.541216" preserveAspectRatio="xMidYMid meet" viewBox="0 0 1379 1296" width="326.220406" xmlns="http://www.w3.org/2000/svg"><g transform="matrix(.1 0 0 -.1 0 1296)"><g fill="#354c9c"><path d="m4697 12576c-55-15-116-60-136-102-29-58-17-115 87-424 55-162 105-307 111-322l10-27 48 16c26 9 52 19 57 24 4 4-39 149-98 321-58 173-106 325-106 339 0 50 63 84 110 59 22-12 34-42 151-390 49-145 93-268 97-272 5-5 87 16 111 29 4 2-13 55-122 379-47 138-92 264-100 280-23 44-67 81-112 93-48 13-47 13-108-3z"/><path d="m3922 12237c-18-5-52-27-76-49-34-29-47-49-56-86-15-64 3-116 105-312 50-95 73-150 67-159-5-8 1-33 16-63 20-42 27-49 45-44 119 34 200 27 257-20l29-25 56 29 57 28-27 32c-35 42-134 88-218 101-38 5-75 16-84 22-26 22-183 347-183 378 0 37 31 61 77 61 38 0 59-28 127-168l39-80 54 26c29 14 53 30 53 34 0 5-23 54-51 109-55 108-95 161-140 185-32 16-99 17-147 1z"/><path d="m3205 11801c-55-25-122-100-131-146-4-22-1-54 6-78 12-40 60-120 80-132 8-5 50 20 93 56 5 3-6 27-22 52-37 54-40 95-8 125s68 28 99-5c53-56 308-426 308-447 0-11-4-26-8-32-13-19-56-44-75-44-21 0-80 59-103 103-15 28-15 28-43 10-76-50-76-50-60-79 25-47 90-114 132-136 56-28 116-19 184 28 81 55 110 132 82 215-11 32-229 349-307 448-61 75-147 99-227 62z"/><path d="m6565 11323c-306-25-619-73-858-134-622-156-1220-440-1722-817-193-145-332-267-531-466-200-201-315-334-469-541-651-879-989-1988-935-3070 12-263 22-354 61-593 73-444 228-924 430-1332 244-493 528-889 919-1280 299-300 588-525 954-744 118-71 402-219 501-261 504-215 973-338 1495-392 201-20 680-23 880-4 1142 105 2180 587 2985 1386 700 694 1166 1575 1349 2550 58 310 71 469 71 885-1 416-10 534-71 865-244 1333-1043 2505-2200 3228-153 96-317 185-464 254-63 30-123 59-134 64-33 19-338 135-436 167-527 170-996 244-1535 240-137-1-268-3-290-5z"/><path d="m2605 11239c-33-10-71-17-85-14-20 4-34-3-65-35l-40-41 25-19c37-28 60-29 144-4s100 23 133-15c28-33 29-71 2-105l-22-27 34-35c36-38 50-41 69-19 15 18 70 20 92 3 8-7 43-43 77-80 68-75 80-118 41-153-36-33-77-22-137 37l-53 53-42-42-41-42 29-33c49-56 90-87 137-105 38-14 52-15 85-5 55 17 101 50 135 98 62 88 42 169-70 285-77 80-121 110-166 114-30 2-32 6-38 47-9 59-19 77-69 121-47 43-80 46-175 16z"/><path d="m2006 10695c-77-27-145-123-131-185 6-26 4-30-15-30-67 0-145-81-156-164-9-66 21-122 104-189 123-100 454-358 474-370 17-11 24-7 54 28 18 22 34 45 33 50 0 6-118 102-262 216-144 113-269 217-277 232-13 24-13 30 0 55 12 20 24 28 51 30 31 3 48-7 139-77 56-44 106-79 109-77 4 3 21 25 39 49l32 45-104 82c-112 88-129 114-101 157 20 29 37 37 69 29 24-6 52-27 265-195 212-169 281-221 290-221 13 0 73 78 69 89s-223 187-481 385c-83 63-142 82-201 61z"/><path d="m1350 9829c0-5-18-37-41-70-75-110-85-165-46-233 32-56 61-76 367-251 188-108 278-155 287-149 8 5 25 28 38 51l25 41-162 94c-177 102-193 119-167 174 8 16 27 33 42 38 30 11 68-5 190-78 29-17 78-46 110-64l57-32 30 47c17 26 29 52 27 57s-74 50-161 99c-161 92-214 110-281 93-44-11-104-74-116-122-6-24-14-44-17-44-8 0-124 67-146 85-32 25-25 72 22 144 23 35 42 69 42 76 0 12-69 55-89 55-6 0-11-5-11-11z"/><path d="m979 9037c-89-60-126-202-72-276 28-37 84-79 116-86 24-6 29-3 41 26 29 73 29 78-1 91-46 20-63 39-63 73 0 68 64 94 139 56 51-27 64-45 63-89-2-36 0-38 46-54 32-12 48-14 51-6 8 24 42 48 68 48 37 0 187-57 212-81 29-27 27-74-4-104-30-31-41-31-118 0-70 29-73 28-97-45-16-49-17-49 82-81 140-45 232 7 268 152 27 109-27 181-183 242-97 38-154 45-202 27-21-8-27-7-32 8-33 95-228 157-314 99z"/><path d="m771 8300c-75-18-129-91-138-188-7-71 12-119 59-156 40-30 148-70 159-59 12 14 30 106 22 113-4 4-26 12-48 18-62 18-79 34-79 77 0 28 6 43 24 57 30 25 64 21 205-21 55-17 155-46 223-65s132-42 143-52c26-23 24-67-5-101-24-27-24-27-82-15-33 7-68 15-79 18-18 4-23-3-39-51-10-31-16-58-14-59 20-13 126-36 167-36 90 0 148 48 177 147 28 96-3 176-85 217-25 13-120 44-211 70s-194 55-230 65c-88 25-129 30-169 21z"/><path d="m13096 6770c-3-8-37-116-77-240-39-124-79-231-88-238-12-10-70-13-263-10-165 2-244 0-237-7 5-5 96-73 202-150 105-77 193-148 195-157s-31-121-73-249c-41-127-74-233-73-235 2-1 53 33 113 77 61 44 145 106 188 137s88 63 101 71c24 15 1 30 346-225 47-35 86-59 88-55 1 5-13 55-32 112-91 276-117 362-113 373 3 6 95 76 205 156 111 80 201 147 202 150 0 3-116 5-257 5h-258l-31 95c-18 52-54 165-82 250s-53 148-56 140z"/><path d="m605 6528-80-243h-258c-141 0-257-2-257-5s93-72 205-153c113-82 205-154 205-159 0-6-34-116-76-245s-75-236-72-238c2-2 28 15 58 38 61 47 265 194 322 234l37 25 78-56c43-30 136-98 208-150 71-52 131-93 133-92 1 2-16 59-38 127s-57 174-77 235-34 118-30 126c3 8 93 79 201 157 108 79 196 146 196 149 0 4-112 6-249 4-249-3-250-3-262 19-6 12-40 111-74 218-64 200-82 251-88 251-1 0-39-109-82-242z"/><path d="m1265 4118c-192-88-354-163-358-167-6-6 113-284 129-300 5-5 92 28 98 38 3 4-15 51-40 105s-43 100-42 102c14 13 198 90 204 85 5-3 20-31 34-61 36-83 35-82 86-57 24 11 44 27 44 34s-11 38-25 69-25 61-25 66 35 25 78 45c135 62 117 67 168-45 25-53 47-98 49-100 8-8 95 38 95 50-1 20-126 292-136 294-5 2-166-70-359-158z"/><path d="m1675 3485c-143-90-276-179-296-198-67-63-72-166-12-246 45-59 140-87 209-61 15 6 148 88 295 181l269 171-16 27c-9 15-24 37-33 50l-17 22-267-170c-190-121-276-171-297-171-53 0-86 61-60 110 5 10 78 62 162 115 216 136 372 236 378 241 5 6-29 71-45 84-7 6-97-45-270-155z"/><path d="m2250 2918c-58-50-172-148-255-218-82-71-170-146-194-167l-44-39 37-42 38-41 96 82c144 122 129 114 157 87 14-13 25-31 25-39 0-9-38-70-85-135-47-66-85-122-85-125 1-3 18-25 39-48l38-42 99 142c54 78 103 145 109 149 5 4 24 8 42 8 49 0 81 16 150 75 98 83 116 109 121 171 3 42 0 61-17 90-29 48-143 182-156 183-5 0-57-41-115-91zm139-107c33-41 39-77 19-103-7-9-37-37-67-62-70-59-104-61-154-10-19 20-33 42-30 48 5 13 185 166 195 166 3 0 20-18 37-39z"/><path d="m2835 2336c-35-15-359-349-392-404-39-63-27-155 26-216 45-51 159-73 220-41 36 18 378 370 398 410 18 34 20 123 3 157-18 33-61 78-92 94-34 17-123 18-163 0zm134-122c39-50 32-62-151-254-163-171-174-180-209-180-58 0-89 42-69 94 5 15 67 86 137 159 71 72 144 149 164 169 47 48 96 53 128 12z"/><path d="m3252 1608-231-323 37-32c20-18 42-33 47-33 6 0 39 42 75 92s75 104 88 120l24 28 32-25c76-58 157-66 230-21 46 28 153 174 162 222 9 51-2 101-30 139-20 26-164 137-197 153-4 2-111-142-237-320zm336 109c26-33 22-65-14-118-57-84-74-99-111-99-32 0-103 36-103 53 0 14 89 143 133 194l19 21 33-19c18-11 38-25 43-32z"/><path d="m3926 1171c-97-193-176-354-176-358 0-7 281-153 295-153 2 0 16 22 30 49l24 49-94 47c-52 25-97 51-100 56-6 8 61 145 89 184 11 16 16 15 75-15 35-17 69-29 77-26 12 5 44 67 44 86 0 5-29 23-65 42-36 18-65 37-65 42 0 8 87 186 95 194 2 2 44-17 94-42s95-46 101-46c10 0 50 71 50 90 0 10-270 150-289 150-6 0-89-157-185-349z"/><path d="m4802 1058c-33-62-75-140-92-173-169-315-220-414-220-422 0-5 23-16 50-25 58-19 55-22 106 85 17 34 35 57 44 57 22 0 109-30 115-40 2-4-2-43-10-86-9-43-14-83-11-90 6-15 95-39 105-28 6 7 114 683 124 774 2 14-98 58-135 59-11 1-36-36-76-111zm53-258c-15-77-31-140-36-140-15 0-79 28-79 35 0 17 134 268 137 258 3-7-8-76-22-153z"/><path d="m5500 898c-7-40-30-167-52-283-66-350-80-427-75-431 5-5 101-23 105-20 1 2 16 77 32 167s35 193 42 229c14 77 24 103 32 80 3-8 14-91 26-185 38-300 41-319 52-326 19-12 100-21 108-12 5 4 18 62 30 128 29 166 67 366 96 518 14 71 24 130 22 131-2 2-26 8-55 13l-52 10-11-51c-14-70-57-306-71-388-7-38-15-68-20-68-9 0-12 22-39 280-29 278-24 257-68 264-20 4-49 9-63 12-26 5-27 4-39-68z"/></g><path d="m7897 9690c-104-12-259-67-358-126-45-27-132-97-197-156-63-60-119-108-123-108-3 0-48 42-99 94-133 136-242 187-438 205-159 14-308-8-427-64-61-29-104-65-321-272-137-131-584-557-994-948-1273-1213-1175-1116-1220-1209-51-104-71-209-72-361 0-188 33-314 109-418 30-41 34-52 24-66-6-9-25-43-41-76-103-211-73-409 90-593 123-140 242-209 376-219l74-6v-43c0-131 51-242 166-364 130-136 220-186 359-199l70-6 7-75c12-137 53-218 171-340 121-125 218-178 358-195l56-7 7-61c15-145 74-255 205-380 129-123 256-174 407-164 76 5 181 36 232 68 19 12 25 9 69-36 208-212 513-305 751-230 168 53 308 182 371 342 40 102 50 281 21 383l-9 33 37-7c181-31 277-28 396 12 243 82 402 332 383 602-4 47-9 96-13 109-7 22-5 23 27 17 19-3 80-9 136-13 130-7 203 6 312 59 234 112 361 378 310 652-6 32-8 60-6 63 3 2 42-4 88-13 303-61 603 108 692 391 29 91 30 285 3 385-27 97-88 216-160 306l-64 81 127 129c176 177 238 280 286 469 35 137 35 304 1 436-48 185-112 292-273 461-216 226-580 606-694 723-63 66-195 203-293 305-190 198-253 256-340 309-163 98-379 143-579 121z" fill="#fff"/><path d="m6432 9485c-110-20-174-56-282-160-52-50-201-191-330-315-129-123-280-267-335-319-118-113-269-257-415-396-294-279-546-521-645-616-60-58-211-202-335-319-124-118-233-224-243-236-106-135-130-483-46-664 55-119 41-123 218 52 409 403 443 434 520 472 178 90 367 83 526-19 28-18 86-70 131-116 117-121 155-194 177-339l12-75 65-6c129-13 234-72 356-201 105-111 156-223 166-368 3-32 6-35 38-37 143-10 247-62 366-183 134-135 179-222 191-362l6-68 41-1c65 0 168-32 230-69 77-47 223-200 262-275 66-126 79-251 41-383-40-137-65-168-407-503l-315-308 25-26c38-41 159-129 215-158 141-71 320-92 447-53 115 35 222 126 278 236 42 85 53 148 48 274-5 93-11 124-37 192-17 45-54 114-82 153-27 39-47 71-45 71 3 0 34-22 69-49 125-94 259-141 407-141 93 1 148 13 227 52 164 80 253 235 253 438 0 127-14 183-72 300-26 52-46 95-45 96 1 2 29-15 61-36 33-22 98-54 145-71 76-28 99-32 196-33 152-1 244 30 342 118 103 93 155 212 155 361 1 50-5 117-12 150-15 74-76 204-125 268-20 26-34 47-31 47s35-23 71-50c113-86 201-121 342-139 94-12 205 7 292 50 271 134 338 504 146 805-20 30-147 171-282 312-431 448-641 668-983 1027-183 193-336 350-340 350s-121-110-261-244-278-262-308-284c-193-143-500-235-700-210-207 26-336 114-424 286-110 218-80 527 77 790 61 102 125 171 404 438l252 241-62 66c-34 37-80 81-102 99-112 87-336 124-534 88z" fill="#354c9c"/><g fill="#ec3237"><path d="m6744 12936c-17-8-38-24-46-35-14-19-16-20-28-6-24 28-68 45-119 45-81 0-133-29-169-95-18-33-20-126-7-532l7-223h59 59l-5 258c-3 141-7 289-10 328-5 75 6 132 27 146 7 4 28 8 45 8 49 0 60-26 68-170 3-68 8-127 10-130s28-3 59-2l56 4v137c0 121 2 140 18 154 21 19 54 22 82 7 30-16 40-73 40-220 0-74 3-220 7-323l6-189 56 7c31 4 58 9 60 11s-1 158-7 346c-12 378-16 404-73 450-43 35-144 47-195 24z"/><path d="m7465 12887c-6-39-29-215-55-432-33-267-25-321 52-372 53-36 166-43 218-15 72 39 96 101 106 264 6 97 5 109-14 143l-22 36 34 33c53 54 64 162 21 231-13 22-25 55-25 73 0 26-4 32-22 32-13 0-40 3-60 6-37 7-38 6-38-25 0-18 12-62 26-98 20-49 25-76 21-107-6-43-35-76-67-76-14 0-20-11-25-51-4-27-5-51-4-52 64-33 70-51 58-157-14-113-33-154-77-158-41-4-78 19-84 52-3 14 1 68 8 121 8 53 25 191 39 306 13 115 27 220 31 234 7 28 3 30-68 39-47 5-47 5-53-27z"/><path d="m5557 12810c-27-5-50-10-52-12s5-43 15-93c10-49 34-187 55-305 20-118 44-239 53-269 37-127 157-172 287-109 63 30 89 77 90 157 0 57-39 312-50 331-7 11-106-12-112-26-2-7 5-61 16-121 32-171 34-181 27-208-8-31-57-58-91-49-35 9-51 36-65 114-19 105-56 314-81 463-13 75-28 136-34 136-5-1-32-5-58-9z"/><path d="m8358 12729c-54-33-80-90-148-334-64-228-106-379-112-405-2-9 6-16 22-18 14-2 29-8 35-13 13-13 55-11 60 4 5 17 90 319 125 447 48 173 56 194 83 213 30 23 67 17 98-14 25-25 23-49-16-179-58-197-145-507-145-518 0-8 85-42 106-42 11 0 185 621 191 687 11 105-68 182-196 190-55 3-72 0-103-18z"/><path d="m9174 12478c-26-51-21-95 24-209 41-104 41-108 28-150-16-51-75-202-106-271-31-70-74-87-124-47-32 25-34 59-6 129 11 28 20 55 20 60 0 13-100 44-110 34-4-5-18-37-30-71-28-77-25-155 8-201 52-72 192-107 263-66 50 29 79 80 149 258 77 195 79 224 25 347-35 81-37 89-23 162 2 14-9 23-47 38-27 10-51 19-52 19s-10-14-19-32z"/><path d="m9884 12124c-55-27-61-35-211-301-35-61-64-102-72-100-8 1-27-20-44-47-27-43-28-50-14-57 74-42 127-131 127-215 0-51 0-51 51-78 28-16 53-25 57-21s7 46 7 93c0 74-4 97-28 152-16 36-31 75-34 86-3 15 26 75 94 194 111 195 131 214 186 183 60-36 58-57-16-189-37-64-66-118-65-119 27-22 93-55 102-52 16 6 121 202 137 255 23 81-20 160-113 206-59 30-118 33-164 10z"/><path d="m10630 11684c-81-27-94-40-244-229-248-312-289-367-279-374 5-3 26-19 46-34 20-16 40-26 45-23 8 5 257 320 364 460 62 82 87 95 133 73 36-17 52-50 41-84-7-22-40-66-253-337-90-114-163-210-163-214 0-9 76-72 87-72 4 1 58 64 118 142 61 77 155 197 209 267 109 139 126 170 126 233 0 44-13 71-59 121-43 47-132 84-171 71z"/><path d="m11089 11068c-85-89-188-197-229-240-78-82-130-163-130-204 0-61 64-150 131-185 46-23 109-25 151-3 39 20 110 86 201 187l70 78-42 42-42 42-118-122c-91-95-123-123-143-123-40 0-57 10-74 42-14 27-14 32 3 63 10 18 103 122 208 230 207 215 250 263 250 278 0 5-18 25-41 43l-41 34z"/><path d="m11608 10436c-285-226-328-263-344-302-50-120 45-285 178-308 77-14 117 9 373 212 53 42 86 77 98 103 14 31 23 39 43 39 16 0 39 13 60 34 30 30 34 41 34 84 0 74-56 132-127 132-42 0-113-54-113-87 0-8-11-13-29-13-17 0-46-14-75-36l-47-35 32-40c31-39 32-40 53-22 11 10 23 21 26 25 3 3 14 8 25 10 15 2 20-3 20-18 0-16-37-51-138-130-204-160-203-159-258-127-55 33-69 102-30 146 9 10 81 70 161 132s193 150 251 197l107 84-34 47c-19 26-38 47-42 46-4 0-105-78-224-173zm350-132c3-35-11-46-45-33-41 15-21 73 22 67 14-2 21-12 23-34z"/><path d="m12235 9802c-61-27-105-52-105-60 0-6 42-74 57-91 2-3 30 8 64 24 56 27 62 28 87 14 33-18 49-60 36-95-7-21-57-54-224-150-118-68-230-128-248-135-58-19-104 31-88 96 4 17 24 35 61 56 30 17 57 35 61 40 7 12-45 99-60 99-6 0-41-20-78-45-47-32-74-58-89-87-55-107 32-268 154-284 38-5 56-2 109 23 72 34 358 198 435 250 96 64 117 159 58 259-53 91-143 125-230 86z"/><path d="m7885 9581c-16-4-55-14-85-21-131-30-259-108-402-245-51-49-187-179-303-289-355-338-467-454-512-531-132-226-164-448-91-639 40-103 123-192 213-226 158-59 404-27 621 83 117 59 100 44 692 612l84 80 75-80c42-44 160-168 262-275s229-240 281-295 151-158 220-230 163-171 210-220c280-297 444-465 454-465 17 0 218 207 256 263 109 164 155 369 126 563-31 210-94 322-297 532-57 59-198 206-314 327-310 324-445 464-592 615-72 74-153 158-180 187-109 116-246 199-393 238-72 19-278 29-325 16z"/><path d="m12739 9047c-24-12-54-38-66-57-40-65-70-95-108-109-36-13-38-12-63 14-70 75-166 71-350-17-118-55-152-148-98-263 58-125 150-144 326-70 133 57 168 90 179 169 6 38 9 41 65 63 69 26 107 59 131 114 11 23 29 44 46 51 31 14 31 19 0 89l-18 39zm-310-243c26-33 27-75 3-97-28-26-174-80-217-81-35-1-42 3-59 34-17 32-18 39-5 65 11 24 32 37 104 67 111 45 146 47 174 12z"/><path d="m12560 8218c-173-50-317-92-319-94s2-27 10-56c17-63 12-63 169-18 113 32 221 63 411 116 115 32 144 28 164-20 18-42 9-73-25-91-27-14-571-173-623-182-15-3-29-9-32-13-8-13 27-110 40-110 30 0 615 173 662 196 87 42 118 117 89 217-18 61-53 110-97 132-54 28-122 17-449-77z"/><path d="m4670 6915c-110-31-116-36-613-525-166-164-192-194-225-259-36-72-37-79-37-180 0-100 2-110 33-174 24-49 57-92 116-151 91-91 157-129 253-147 95-18 115-10 212 83 47 46 232 222 411 392 179 171 349 333 378 361 51 49 54 55 59 111 12 129-28 225-144 345-111 116-182 152-303 156-54 2-105-3-140-12z"/><path d="m5265 6273c-79-75-452-431-663-632-106-102-198-193-204-204-18-34-11-166 11-229 25-73 63-127 143-204 97-94 203-144 306-144h44l311 298c287 273 403 384 576 548 61 59 64 64 69 117 9 115-33 216-140 332-106 114-210 165-337 165-65 0-67-1-116-47z"/><path d="m5902 5700c-13-5-83-67-155-137-73-71-222-213-332-318-110-104-250-239-311-300l-112-110-6-60c-15-147 29-249 166-381 105-102 153-127 270-139l68-7 107 103c98 95 348 333 608 579 55 52 133 127 173 165l73 71 1 67c0 44-8 93-23 140-21 67-29 79-128 178-89 89-116 110-166 129-66 25-195 36-233 20z"/><path d="m6509 5092c-15-4-42-21-62-37-45-39-500-473-750-715l-98-95-11-68c-13-82 0-174 36-246 31-60 140-178 208-224 122-83 305-88 438-10 24 15 192 170 372 346 308 300 331 325 366 395 36 74 37 79 37 187 0 109-1 111-39 182-50 94-171 213-260 254-64 30-182 46-237 31z"/><path d="m12110 4192c-45-22-90-88-97-140-13-95 27-162 119-202 76-33 144-25 285 34 128 53 184 59 227 25 84-66 38-160-71-145-47 6-51 2-69-68-7-30 14-38 95-39 114-1 191 80 191 201 0 59-26 103-89 147-40 28-49 30-129 30-81-1-94-4-182-45-75-34-107-44-150-44-87-1-145 52-125 114 8 27 61 50 96 43 24-4 27-1 38 43 10 38 10 49-1 55-23 15-102 10-138-9z"/><path d="m11679 3453c-52-81-95-150-97-153-3-8 73-60 86-60 5 0 23 23 40 50 27 44 34 49 51 41 10-6 124-79 252-162 129-84 251-162 271-175l37-24 31 45 30 44-72 49c-40 26-169 110-285 186-117 76-213 141-213 145s14 28 30 54c17 26 30 50 30 52 0 5-84 55-91 55-3 0-48-66-100-147z"/><path d="m11334 2921c-116-28-181-175-121-273 29-47 90-95 137-108 21-6 115-9 210-8l171 3 30-33c74-82-5-182-101-127-36 21-42 19-74-22l-29-36 29-23c42-34 118-49 172-35 51 14 110 64 128 108 32 75 8 173-56 226-56 48-117 59-285 52-139-6-152-5-182 14-65 41-85 109-43 143 27 22 52 23 90 3 28-15 28-14 54 29 14 25 26 47 26 49 0 8-63 35-95 40-16 3-44 2-61-2z"/><path d="m10768 2353-36-38 277-287 276-287 38 37c20 20 36 40 35 44-2 4-95 103-208 220s-234 243-269 281c-35 37-67 67-71 67-3 0-22-17-42-37z"/><path d="m10224 1898c-16-13-34-28-41-34-9-9 40-76 215-296 125-156 237-296 249-312l23-28 120 97c66 53 122 100 124 104 3 4-10 24-28 46l-33 39-81-62c-44-34-82-62-85-62s-58 66-123 148c-226 283-306 382-309 382-1 0-15-10-31-22z"/><path d="m9663 1543c-35-21-63-43-63-51 0-7 7-29 16-50 8-20 65-170 126-332 60-162 117-311 125-332l14-36 49 30 49 30-26 67c-41 107-42 106 13 141 26 16 53 30 59 30s37-32 69-70c64-79 50-76 131-24l25 16-53 61c-28 34-56 67-62 73-5 6-98 118-205 247-107 130-197 236-200 236-3 1-33-16-67-36zm132-200c89-111 155-199 155-209 0-6-18-20-40-33-38-21-40-21-47-4-5 14-72 179-110 271-10 25 13 11 42-25z"/><path d="m9083 1260c-24-10-43-23-43-29 0-8 40-112 155-406 79-203 126-320 130-323 7-7 95 31 95 41s-75 206-210 547c-34 85-64 163-67 173-7 21-8 21-60-3z"/><path d="m8461 1049c-54-16-97-56-120-109-26-60-26-71-2-151 10-35 33-116 51-179 69-253 72-262 110-300 93-93 247-65 301 55 23 50 23 73 2 158-19 73-21 74-85 55-39-11-40-13-33-47 18-101 18-118-4-140-26-26-82-28-104-3-17 18-33 66-85 257-60 215-63 232-51 258 11 24 47 47 73 47 30 0 64-41 76-90 13-55 18-57 82-38 38 11 39 13 33 47-23 131-134 213-244 180z"/><path d="m7685 876c-22-9-54-31-72-50-52-57-56-90-33-288 41-355 44-369 88-411 33-32 91-57 132-57 70 0 144 51 176 122 16 36 17 49 6 141-45 389-52 429-73 464-46 74-144 108-224 79zm103-114c29-22 42-90 68-345 17-165 17-177 1-201-14-20-26-26-56-26-66 0-72 14-103 258-34 271-34 277-3 307 28 29 61 32 93 7z"/><path d="m6834 801c-90-55-118-176-63-282 10-21 65-81 123-135 57-53 109-108 115-121s11-44 11-68c0-108-114-120-157-17l-20 47-46-3c-42-4-47-7-47-29 0-38 48-130 79-152 36-26 110-43 153-34 72 13 118 53 143 122 37 105 0 188-138 315-53 48-103 103-111 121-25 51-21 111 9 140 27 28 33 29 69 15 21-7 48-48 61-87 0-1 23 4 50 11 41 10 49 16 47 32-9 46-33 85-73 113-37 27-50 31-108 31-47 0-75-6-97-19z"/></g></g></svg>