<svg enable-background="new 0 0 800 400" height="223.606798" viewBox="0 0 800 400" width="447.213595" xmlns="http://www.w3.org/2000/svg"><path d="m381.7 200c0 102.2-82.9 185.1-185.1 185.1s-185.1-82.9-185.1-185.1 82.9-185.1 185.1-185.1c102.3 0 185.1 82.9 185.1 185.1" fill="#efcd10"/><path d="m255 300.8c-.6.9-1.2 1.9-1.7 2.8-.3.6-.7 1.1-1 1.7-.1.2-.2.4-.3.6-1.2 2.1-2.3 4.1-3.4 6.3-1 1.9-1.9 3.9-2.7 5.9-.5 1.2-.9 2.3-1.4 3.5-.1.3-.3.7-.4 1-.3.8-.5 1.6-.8 2.4-.1.2-.1.4-.2.6-.5 1.6-.9 3.2-1.4 4.9-.1.3-.1.6-.2.8-.2 1-.5 2-.7 3 0 .2-.1.4-.1.6-.1.5-.2 1.1-.3 1.6-.1.6-.2 1.1-.3 1.7-.1.5-.1 1-.2 1.5-.3 2.2-.6 4.6-.8 7.1-.1.8-.1 1.5-.2 2.3-.1.7-.1 1.4-.1 2.1-.1.9-.1 1.9-.2 2.9-.1 1.4-.1 2.8-.1 4.3 0 2.9 0 6 .1 9.2 0 .7 0 1.5.1 2.2-.7.2-1.4.3-2.1.4-.2.1-.5.1-.8.2-.1 0-.1 0-.2 0-.2 0-.3.1-.4.1-.5.1-1.1.2-1.6.3-2.5.5-5 1-7.6 1.3-1.4.2-2.7.4-4.1.6-.3.1-.6.1-.9.1-.8.1-1.7.2-2.5.3-1.7.2-3.4.4-5.1.5-1.2.1-2.4.2-3.6.3-.3 0-.6.1-1 .1-2.2.2-4.5.3-6.7.3-.8 0-1.6 0-2.3.1-1 0-2 0-3.1 0-1.4 0-2.9 0-4.3-.1-.4 0-.9 0-1.3 0-1.5 0-3-.1-4.6-.2-2.7-.2-5.3-.3-8-.6-.1 0-.1 0-.2 0-1-.1-2.1-.2-3.1-.3-.2 0-.4 0-.6-.1-1-.1-8.1-1.2-8.6-1.2-.8-.1-1.6-.3-2.5-.4-.7-.1-1.5-.3-2.2-.4-.8-.2-1.7-.3-2.5-.5-.7-.1-1.3-.2-2-.4 0-2.4-.3-36.3-.3-37.4 0-.2.2-.4.5-.3 18.3 6.7 39.6 4 47.4.9 1.2-.3 2-1.6 1.5-2.9-.4-1-1.5-1.5-2.5-1.3-6.6 1.1-13.3 1.5-19.9 1.1s-13.1-1.8-19.1-4.3c-3.5-1.4-6.8-3.2-10-5.3l-.6-.5s-8.7-5.6-16.6-18.9c0-.1-.2-.3-.3-.6-1-1.7-2-3.5-2.9-5.4-4.6-9.5-8.8-22.8-10-40.5.2.3.6.7.8 1 9 10.8 18.1 13.7 25.3 13.7 1.8 0 3.4-.2 4.9-.5 6.5-1.2 11.4-5.1 14.2-9.4.1-.1.3-.2.4-.1.1 0 .2.1.2.1 2.7 1.1 5.6 1.8 8.7 1.8 1 0 2-.1 3-.2 4.1-.8 6.3-1.8 9.1-3.5 3.2-2 5.2-4.4 7.1-7.1.1-.2.2-.4.3-.6.5-.9 1-1.9 1.3-2.8.1-.3.5-.5.8-.4s.8.3 1.3.4c.2.1.4.1.6.2.6.2 1.3.4 2.1.7.6.2 1.1.3 1.7.5h.1c.9.2 1.8.5 2.7.7.8.2 1.5.4 2.2.5.3.1.6.2.9.2.6.1 3.7.7 3.7.7s-.6.8-.9 1.2c-1.3 1.6-2.5 3.3-3.6 5.1-1.4 2.1-2.6 4.3-3.7 6.6s-2 4.6-2.8 7c-3.2 9.5-4.1 19.5-3.2 29.1.1 1.3 1.4 2.3 2.9 1.9.9-.2 1.5-1 1.5-1.9.5-4.6 1.2-9.1 2.3-13.5 1.1-4.3 2.5-8.6 4.3-12.6.9-2 1.9-3.9 3-5.8s2.2-3.7 3.5-5.5c2.6-3.4 5.5-6.7 8.7-9.3.4-.3.8-.6 1.2-.9l.2-.1c.6-.4 1.2-1.1 1.6-1.9.8-1.6.8-3.4.2-4.9-.3-.8-.9-1.5-1.6-2-.7-.6-1.5-1-2.3-1.1-.2-.1-.4-.1-.6-.1h-.1-.1-.2c-1.1-.1-2.2-.3-3.3-.5-2.2-.4-4.4-.8-6.6-1.3-4.4-1.1-8.7-2.3-12.9-3.8-.9-.3-1.7-.6-2.6-1-1.2-.5-2.5-1-3.7-1.5-1.8-.8-3.5-1.8-5.1-2.9-3.2-2.2-5.8-5.2-7.8-8.5-1-1.8-1.9-3.7-2.5-5.7-.5-1.7-.9-3.5-1-5.2-.1-.9-.1-1.8 0-2.7 0-.2.1-.7.1-.7.1-1.1.3-1.9.8-2.7.9-1.5 2.4-2.3 4.2-2.5h.2 1.5c1.4 0 2.8.1 4.3.4 4.2.6 8.6 1.7 12.9 2.9 4.4 1.2 8.8 2.7 13.2 4.1 4.4 1.5 8.9 2.9 13.3 4.5 1 .3 2.7.9 4.8 1.7.6.2 1.2.4 1.8.6.9.3 1.8.6 2.7 1 1.2.4 2.4.9 3.6 1.3.2.1 3.3 1.2 3.6 1.3 4.7 1.7 8.6 5 11 9.4v.1c11.9 20.6 10.5 48.2-3.2 70.5" fill="#fffbf1"/><path d="m283.3 90.3c2-10.8-5.1-21.2-15.9-23.2-10.5-2-20.7 4.6-23.2 15 0 0-22.2 94-22.2 94-.2.9-1 1.5-2 1.5-.9 0-1.5-.5-1.8-1.2 0-.1-.2-.6-.2-.6s-12.1-49.4-22.7-97.5c-1.5-6.7-5.9-12.3-12.4-15.2-3.2-1.4-6.7-2-10.2-1.7-13.1 1.2-21.7 13-19.3 25.3l14.9 77.4c-2.3-.8-4.7-1.2-7.3-1.2-11.4 0-20.7 8.6-21.8 19.7-.1 0-.1 0-.2 0h-.1c-2.1-.7-4.3-1-6.7-1-12 0-21.9 9.4-22.7 21.2 0 0-.1 1.6-.1 1.6-.1 2.4 0 4.9 0 4.9 0 7 1.3 14.8 3.5 22.2.4 1.2.5 2.4.4 3.6-.9 15.8.3 29.2 2.7 40.5 0 0 1.9 12.6 9.6 27.1 0 0 .6 1.2.9 1.7 4 7.3 8.4 12.8 12.1 16.8 0 0 .1.1.1.1 1.6 1.7 3.1 3.2 4.4 4.3 1.6 1.4 2.6 3.4 2.6 5.5.1 5.7.4 34.4.4 44.3 0 1.8 1.2 3.3 2.9 3.8 2.5.6 5 1.2 7.5 1.8 12.8 2.8 26.1 4.3 39.8 4.3 14.6 0 28.9-1.7 42.6-4.9 2.4-.6 4.8-1.2 7.2-1.9 1.7-.5 2.9-2.2 2.8-4-.1-2.4-.2-5.5-.3-7.1-.9-35.3 7.1-48.3 14.9-60.9 15.7-25.4 17.3-57.2 4-81-2-3.6-3-8.1-2.9-12.9.2-8.5 1.4-24 5.6-49.4 4.4-25.4 10.1-56.6 13.1-72.9m-28.3 210.5c-.6.9-1.2 1.9-1.7 2.8-.3.5-1.2 2.1-1.4 2.3-1.2 2.1-2.3 4.2-3.4 6.3-.4.8-.8 1.7-1.2 2.5-.5 1.1-1 2.2-1.5 3.4s-.9 2.3-1.4 3.5c-.1.3-.3.7-.4 1-.3.8-.5 1.6-.8 2.4-.1.2-.1.4-.2.6-.5 1.6-.9 3.2-1.4 4.9-.1.3-.3 1.3-.3 1.5-.2.8-.4 1.6-.5 2.4 0 .2-.1.4-.1.6-.1.5-.5 2.9-.6 3.3-.1.5-.1 1-.2 1.5-.3 2.2-.6 4.6-.8 7.1-.1.7-.1 1.5-.2 2.3-.1.7-.1 1.4-.1 2.1-.1.9-.1 1.9-.2 2.9-.1 1.4-.1 2.8-.1 4.3 0 2.9 0 6 .1 9.2 0 1.2-.8 2.3-1.9 2.6 0 0-2.7.6-3.1.7-2.5.5-5 1-7.6 1.3-1.3.2-6.6.9-7.5 1-1.7.2-3.4.4-5.1.5-1 .1-2 .2-3 .2-.2 0-1.3.1-1.6.1-2.2.2-4.5.3-6.7.3-.8 0-4.4.1-5.4.1-1.4 0-2.9 0-4.3-.1-.4 0-4.6-.2-5.9-.2-1.6-.1-3.2-.2-4.7-.3-1.1-.1-2.2-.2-3.2-.3-.1 0-3.6-.4-3.8-.4-1-.1-1.9-.2-2.9-.4-.3 0-5.3-.8-5.8-.9-.8-.1-1.6-.3-2.5-.4-.7-.1-1.5-.3-2.2-.4-.8-.2-1.7-.3-2.5-.5-1.2-.3-2-1.3-2-2.6 0-1.1-.3-34.1-.3-35.2 0-.2.2-.4.5-.3 18.3 6.7 39.6 4 47.4.9 1.2-.3 2-1.6 1.5-2.9-.4-1-1.5-1.5-2.5-1.3-6.6 1.1-13.3 1.5-19.9 1.1s-13.1-1.8-19.1-4.3c-3.5-1.4-6.8-3.2-10-5.3l-.6-.5s-8.7-5.6-16.6-18.9c0-.1-.2-.3-.3-.6-1-1.7-2-3.5-2.9-5.4-4.6-9.5-8.8-22.8-10-40.5.2.3.6.7.8 1 9 10.8 18.1 13.7 25.3 13.7 1.8 0 3.4-.2 4.9-.5 6.5-1.2 11.4-5.2 14.2-9.4.1-.1.3-.2.4-.1.1 0 .2.1.2.1 2.7 1.1 5.6 1.8 8.7 1.8 1 0 2-.1 3-.2 6.9-.9 12.7-4.9 16.2-10.6.1-.2.2-.4.3-.6.5-.9 1-1.9 1.3-2.8.1-.3.5-.5.8-.4s.8.3 1.3.4c.2.1 1.9.6 2.7.8.6.2 2.5.8 2.8.8.6.2 1.2.3 1.7.5.7.2 1.5.4 2.2.5.3.1 2.2.5 2.7.6 0 0 2.1.2 1 1.6-1.4 1.6-2.5 3.3-3.6 5-1.3 2.1-2.6 4.3-3.7 6.6s-2 4.6-2.8 7c-3.2 9.5-4.1 19.5-3.2 29.1.1 1.3 1.4 2.3 2.9 1.9.9-.2 1.5-1 1.5-1.9.5-4.6 1.2-9.1 2.3-13.4s2.5-8.6 4.3-12.6c.9-2 1.9-3.9 3-5.8s2.2-3.7 3.5-5.5c2.6-3.4 5.5-6.7 8.7-9.3.4-.3.8-.6 1.2-.9l.2-.1c.6-.4 1.2-1.1 1.6-1.9.8-1.6.8-3.4.2-4.9-.3-.7-.9-1.5-1.6-2-.7-.6-1.5-1-2.3-1.1-.2-.1-1-.2-1-.2-1.1-.1-2.2-.3-3.3-.5-2.2-.4-4.4-.8-6.6-1.3-4.4-1.1-8.7-2.3-12.9-3.8-.9-.3-1.7-.6-2.6-1-1.2-.5-2.5-1-3.7-1.5-1.8-.8-3.5-1.7-5.1-2.9-3.2-2.2-5.8-5.2-7.8-8.5-1-1.8-1.9-3.7-2.5-5.7-.5-1.7-.9-3.5-1-5.2-.1-.9-.1-1.8 0-2.7 0-.2.1-.7.1-.7.1-1.1.3-1.9.8-2.7.9-1.5 2.4-2.3 4.2-2.5.5 0 1.7-.1 1.7-.1 1.4 0 2.8.1 4.3.4 4.2.6 8.6 1.7 12.9 2.9 4.4 1.2 8.8 2.7 13.2 4.2s8.9 2.9 13.3 4.5c1 .3 11.7 4.2 12.9 4.6.2.1 2.9 1.1 2.9 1.1 4.5 1.7 8.4 4.8 11.1 8.8l.6.8v.1c11.8 20.6 10.4 48.2-3.3 70.5m5.2-139.5c-4.1 24.9-5.3 40.7-5.7 49.7 0 .5-.5.8-1 .6-6.1-2.5-12.3-4.9-18.6-7.2-8.9-3.3-17.7-6.4-27-9.2-4.6-1.3-9.4-2.6-14.5-3.3-2.6-.3-5.2-.6-8.2-.4-.3 0-.7 0-1 .1l-1-5.2-2.3-11.9-17.3-89.6c-1.1-5.9 2.5-11.5 8.4-12.8 2.9-.7 5.8-.2 8.3 1.5 2.5 1.6 4.2 4.1 4.8 6.9 14.9 70.1 21 91.8 23.9 99.1 0 .1.2.6.2.6 1.8 4.4 6.1 7.4 11.1 7.4s9.3-3 11.1-7.4l.8-2.5 22.1-93.1c1.2-5 6-8.1 11.1-7.2 5.2 1 8.6 6 7.6 11.1-3 16.3-8.7 47.6-12.8 72.8" fill="#231f20"/><path d="m273.1 88.4c-3 16.4-8.7 47.7-12.9 73-4.1 24.9-5.3 40.7-5.6 49.7 0 .5-.5.8-1 .6-6.1-2.5-12.3-4.9-18.6-7.2-8.9-3.3-17.7-6.4-27-9.2-4.6-1.3-9.4-2.6-14.5-3.3-2.6-.3-5.2-.6-8.2-.4-.3 0-.7 0-1 .1l-1-5.2-2.3-11.9-17.3-89.6c-1.1-5.9 2.5-11.5 8.4-12.8 2.9-.7 5.8-.2 8.3 1.5 2.5 1.6 4.2 4.1 4.8 6.9 14.9 70.1 21 91.8 23.9 99.1 0 .1.2.6.2.6 1.8 4.4 6.1 7.4 11.1 7.4s9.3-3 11.1-7.4c.2-.4.7-2.5.7-2.5l22.1-93.1c1.2-5 6-8.1 11.1-7.2 5.2.7 8.6 5.7 7.7 10.9" fill="#fffbf1"/><path d="m189.9 243.4c-.9 2.2-2.3 4.6-4.6 6.1-2.7 1.7-6.3 1.9-10.9.7-11.7-3.1-23.3-26.6-25.5-48.1-.5-4.7-.5-9.3 0-13.6.1-.7.2-1.4.3-2 0-.2.1-.4.1-.6.1-.4.2-.8.2-1.2 0-.2.1-.4.2-.7.1-.4.2-.7.3-1.1.1-.2.1-.4.2-.5.2-.5.4-1 .6-1.5 0-.1.1-.2.1-.3.1-.2.2-.4.3-.6s.2-.5.4-.7c1.6-2.6 4.3-4.6 7.6-5.2 5.9-1.1 11.6 2.5 12.7 8.2l2.5 12.7c.1.3 0 .7-.3.9-1 1-1.8 2-2.5 3.2-.9 1.6-1.4 3.2-1.8 4.7v.1c-.4 1.5-.6 3-.6 4.4-.1 1.5 0 2.9.1 4.3.3 2.8.9 5.6 1.8 8.2s2 5.1 3.4 7.5c2.8 4.7 6.6 8.9 11.2 12 1.3.9 2.6 1.6 3.9 2.3.3.1.4.5.3.8" fill="#fffbf1"/><path d="m160.1 254.7c-1.3 1.8-3.6 3.7-6.9 4.3-7.2 1.3-13.9-1.8-20.4-9.6-3.3-4-6.5-10.7-8.8-18-.1-.3-.2-.6-.3-.8-3.5-11.4-5.1-24-2.2-30.5 3.2-7.2 9.4-8 13.6-7.5 1.7.2 2.9 1.5 3 3.2.4 19.6 8.6 45.1 21.8 57.7.5.2.5.7.2 1.2" fill="#fffbf1"/><g fill="#231f20"><path d="m524 184.6v14.9c0 3.4-.5 6.4-1.5 9l-12.7-5.4c.5-1 .8-2.2.8-3.6v-15.7c0-6.2-2.7-8.5-7-8.5h-3c-4.3 0-7 2.3-7 8.5v18.9h-13.6v-18.9c0-6.2-2.7-8.5-7-8.5h-3c-4.3 0-7 2.3-7 8.5v18.9h-13.5v-18.9c0-6.2-2.7-8.5-7-8.5h-3c-4.3 0-7 2.3-7 8.5v25.2c0 6.1 2.7 8.5 7 8.5h48.1c6.8 0 12.1 2.1 15.6 6l-9.5 9.5c-1.2-2.3-3.3-3.3-6-3.3h-48.1c-13.3 0-20.5-7.9-20.5-21.6v-23.6c0-13.8 7.3-21.6 20.5-21.6h3c5.8 0 10.4 2.4 13.8 5.2 3.4-2.8 8-5.2 13.8-5.2h3c5.8 0 10.4 2.4 13.8 5.2 3.4-2.8 8-5.2 13.8-5.2h3c13 0 20.2 7.9 20.2 21.7"/><path d="m700.3 184.6v14.9c0 3.4-.5 6.4-1.5 9l-12.8-5.4c.5-1 .8-2.2.8-3.6v-15.7c0-6.2-2.7-8.5-7-8.5h-3c-4.3 0-7 2.3-7 8.5v18.9h-13.5v-18.9c0-6.2-2.7-8.5-7-8.5h-3c-4.3 0-7 2.3-7 8.5v18.9h-13.5v-18.9c0-6.2-2.7-8.5-7-8.5h-3c-4.3 0-7 2.3-7 8.5v25.2c0 6.1 2.7 8.5 7 8.5h48.1c6.8 0 12.1 2.1 15.6 6l-9.5 9.5c-1.2-2.3-3.3-3.3-6-3.3h-48.1c-13.3 0-20.5-7.9-20.5-21.6v-23.6c0-13.8 7.3-21.6 20.5-21.6h3c5.8 0 10.4 2.4 13.8 5.2 3.4-2.8 8-5.2 13.8-5.2h3c5.8 0 10.4 2.4 13.8 5.2 3.4-2.8 8-5.2 13.8-5.2h3c13 0 20.2 7.9 20.2 21.7"/><path d="m581.6 184.6v26.8c0 13.8-7.3 21.6-20.5 21.6h-3c-13.3 0-20.5-7.9-20.5-21.6v-3.1h13.5v4c0 6.1 2.7 8.5 7 8.5h3c4.3 0 7-2.3 7-8.5v-28.5c0-6.2-2.7-8.5-7-8.5h-3c-4.3 0-7 2.3-7 8.5v3h-13.5v-2.1c0-13.8 7.3-21.6 20.5-21.6h3c13.3-.2 20.5 7.7 20.5 21.5"/><path d="m788.5 184.6v35.4c0 4.7-.9 8.7-2.5 12h-13.5c1.4-2.8 2.2-6.1 2.4-10v-38.2c0-6.2-2.7-8.5-7-8.5h-3.3c-4.3 0-6.6 2.3-6.6 8.5v36.1h-13.5v-36.1c0-6.2-2.7-8.5-7-8.5h-3c-4.3 0-7 2.3-7 8.5v38.2c.2 3.9 1 7.2 2.4 10h-13.5c-1.7-3.2-2.5-7.3-2.5-12v-35.4c0-13.8 7.3-21.6 20.5-21.6h3c5.8 0 10.4 2.4 13.8 5.2 3.4-2.8 7.6-5.2 13.4-5.2h3.3c13.3-.1 20.6 7.8 20.6 21.6"/><path d="m486.9 261.1c-.8-.2-1.1-1.1-1.1-2.8h-2.7c0 3 .7 4.7 2.2 4.9.9.2 1.4 1.2 1.4 3v3c0 1.5-.6 2.3-2 2.3h-3.5c-1.3 0-2-.8-2-2.3v-15.9h-2.7v15.9c0 3.1 1.6 4.6 4.7 4.6h3.5c3.1 0 4.6-1.5 4.6-4.6v-3c.1-2.9-.7-4.6-2.4-5.1"/><path d="m505.1 260.7c0-2.6-1.3-3.8-4-3.8h-3.1c-.6 0-.9-.4-.9-1.1v-2.4h-2.7v2.4c0 2.3 1.1 3.5 3.2 3.5h3.5c.8 0 1.3.5 1.3 1.5l.1 8.4c0 1.5-.6 2.3-2 2.3h-3.5c-1.3 0-2-.8-2-2.3l.1-4.2h-2.7l-.1 4.2c0 3.1 1.6 4.6 4.6 4.6h3.5c3.1 0 4.6-1.5 4.6-4.6z"/><path d="m518.3 253.3v3c-1.1-.9-2.6-1.4-4.6-1.6h-.9c-2.6 0-3.9 1.6-3.9 4.7l.1 2h2.7l-.1-2c0-1.5.4-2.3 1.3-2.3h.9c2.1.3 3.6 1.1 4.6 2.1v10c0 1.5-.7 2.3-2 2.3h-3.5c-1.3 0-1.9-.8-1.9-2.3l.1-3.3h-2.7l-.1 3.3c0 3.1 1.5 4.7 4.6 4.7h3.5c3.1 0 4.6-1.6 4.6-4.7v-15.9z"/><path d="m536.8 260.7c0-2.6-1.3-3.8-4-3.8h-3.1c-.6 0-.9-.4-.9-1.1v-2.4h-2.7v2.4c0 2.3 1.1 3.5 3.2 3.5h3.5c.8 0 1.3.5 1.3 1.5l.1 8.4c0 1.5-.6 2.3-2 2.3h-3.5c-1.3 0-2-.8-2-2.3l.1-4.2h-2.7l-.1 4.2c0 3.1 1.5 4.6 4.6 4.6h3.5c3.1 0 4.7-1.5 4.7-4.6z"/><path d="m548.4 260.6h-5.8c-.1-2.3.7-3.9 2.3-4.6l2.7-.5-.4-2.1-1.9.3c-3.6.6-5.4 2.9-5.4 6.9v8.6c.3 2.8 1.6 4.3 3.9 4.6l.4-2.4c-1-.3-1.6-1-1.6-2.3v-6.2h5.7c1.3 0 2 .8 2 2.3v3.9c0 1.2-.6 2-1.7 2.3l.4 2.4c2.7-.3 4-1.9 4-4.6v-3.9c0-3.2-1.5-4.7-4.6-4.7"/><path d="m570.7 253.3h-1.5c-1.3 0-2.3.6-3.1 1.9-.9-1.3-2-1.9-3.2-1.9h-2.3c-3 0-4.5 1.5-4.5 4.5v11.5c0 3 1.5 4.5 4.5 4.5h2.3c3 0 4.5-1.5 4.5-4.5v-11c0-.3-.1-.6-.1-.8.2-1.2 1-1.8 2.5-1.8h.9c1.2 0 1.8.7 1.8 2.1v11.5c0 1.1-.9 1.9-2.6 2.1v2.4c3.5-.3 5.3-1.8 5.3-4.5v-11.5c0-3-1.5-4.5-4.5-4.5m-5.9 16c0 1.4-.6 2.1-1.8 2.1h-2.3c-1.2 0-1.8-.7-1.8-2.1v-11.5c0-1.4.6-2.1 1.8-2.1h2.3c1.2 0 1.8.7 1.8 2.1z"/><path d="m588.8 263.1c1.4-.8 2-2 2-3.5v-1.7c0-3.1-1.6-4.6-4.6-4.6h-2.7c-3.1 0-4.6 1.5-4.6 4.6v1.8h2.7v-1.8c0-1.5.7-2.3 2-2.3h2.7c1.3 0 2 .8 2 2.3v1.7c0 1.6-.7 2.4-2.1 2.4h-2.3v2.4h2.5c1.4 0 2.1.8 2.1 2.3v2.5c0 1.5-.8 2.3-2.3 2.3h-2.7c-1.6 0-2.3-.8-2.3-2.3l.2-3.3h-2.7l-.2 3.3c0 3.1 1.7 4.7 5 4.7h2.7c3.3 0 5.1-1.6 5.1-4.7v-2.5c-.2-1.6-1-2.8-2.5-3.6"/><path d="m602.3 253.3h-2.7c-3.1 0-4.6 1.5-4.6 4.6l.1 3h2.7l-.1-3c0-1.5.6-2.3 2-2.3h2.7c1.3 0 2 .8 2 2.3v11.2c0 1.5-.6 2.3-2 2.3h-3.5c-1.3 0-2-.8-2-2.3l.3-3.3h-2.7l-.3 3.3c0 3.1 1.6 4.6 4.7 4.6h3.5c3.1 0 4.6-1.5 4.6-4.6v-11.2c0-3.1-1.6-4.6-4.7-4.6"/><path d="m618.8 253.3h-3.9c-3.1 0-4.6 1.6-4.6 4.7l.2 11c0 2.7.9 4 2.6 4h4.1c1.5 0 2.3.3 2.3.8h3c0-2.1-1.7-3.2-5-3.2h-3.1c-.8 0-1.2-.6-1.2-1.7l-.2-11c0-1.5.7-2.3 1.9-2.3h3.9c1.3 0 2 .8 2 2.3v4c0 1.1-.7 1.9-2.1 2.5l1.1 2c2.5-.7 3.7-2.2 3.7-4.6v-4c-.1-3-1.7-4.5-4.7-4.5"/><path d="m640 253.3h-1.1c-1.4 0-2.5.7-3.3 2.1-.8-1.4-2-2.1-3.3-2.1h-1.2c-3.1 0-4.6 1.6-4.6 4.7v11.2c0 2.8 1.8 4.4 5.5 4.6v-2.5c-1.8-.3-2.8-1-2.8-2.1v-11.2c0-1.5.6-2.3 2-2.3h1.2c1.3 0 2 .8 2 2.3v8.8h2.7v-8.8c0-1.5.6-2.3 1.9-2.3h1.1c1.3 0 2 .8 2 2.3v11.2c0 1.1-.9 1.9-2.8 2.1v2.5c3.6-.3 5.5-1.8 5.5-4.6v-11.2c-.1-3.2-1.7-4.7-4.8-4.7"/><path d="m658.2 261.1c-.8-.2-1.1-1.1-1.1-2.8h-2.7c0 3 .7 4.7 2.2 4.9.9.2 1.4 1.2 1.4 3v3c0 1.5-.6 2.3-2 2.3h-3.5c-1.3 0-2-.8-2-2.3v-15.9h-2.7v15.9c0 3.1 1.6 4.6 4.7 4.6h3.5c3.1 0 4.6-1.5 4.6-4.6v-3c.1-2.9-.8-4.6-2.4-5.1"/><path d="m678.3 253.3h-1.5c-1.2 0-2.3.6-3.1 1.9-.9-1.3-2-1.9-3.2-1.9h-2.3c-3 0-4.5 1.5-4.5 4.5v11.5c0 3 1.5 4.5 4.5 4.5h2.3c3 0 4.5-1.5 4.5-4.5v-11c0-.3 0-.6-.1-.8.2-1.2 1-1.8 2.5-1.8h.9c1.2 0 1.8.7 1.8 2.1v11.5c0 1.1-.9 1.9-2.6 2.1v2.4c3.5-.3 5.3-1.8 5.3-4.5v-11.5c.1-3-1.4-4.5-4.5-4.5m-5.9 16c0 1.4-.6 2.1-1.8 2.1h-2.3c-1.2 0-1.8-.7-1.8-2.1v-11.5c0-1.4.6-2.1 1.8-2.1h2.3c1.2 0 1.8.7 1.8 2.1z"/><path d="m696.4 263.1c1.4-.8 2-2 2-3.5v-1.7c0-3.1-1.5-4.6-4.6-4.6h-2.7c-3.1 0-4.6 1.5-4.6 4.6v1.8h2.7v-1.8c0-1.5.6-2.3 2-2.3h2.7c1.3 0 2 .8 2 2.3v1.7c0 1.6-.7 2.4-2 2.4h-2.3v2.4h2.5c1.4 0 2.1.8 2.1 2.3v2.5c0 1.5-.8 2.3-2.4 2.3h-2.8c-1.6 0-2.3-.8-2.3-2.3l.2-3.3h-2.7l-.2 3.3c0 3.1 1.7 4.7 5 4.7h2.7c3.4 0 5-1.6 5-4.7v-2.5c0-1.6-.7-2.8-2.3-3.6"/><path d="m710.2 253.3h-3.8c-3 0-4.5 1.5-4.5 4.5v11.5c0 2.5 1.6 4 4.8 4.5v-2.5c-1.4-.2-2.1-.9-2.1-2v-11.5c0-1.4.6-2.2 1.8-2.2h3.8c1.2 0 1.8.7 1.8 2.2v11.5c0 1.1-.7 1.8-2.1 2v2.5c3.2-.5 4.8-2 4.8-4.5v-11.5c.1-3-1.5-4.5-4.5-4.5"/><path d="m728.3 261.1c-.7-.2-1.1-1.1-1.1-2.8h-2.7c0 3 .7 4.7 2.2 4.9.9.2 1.4 1.2 1.4 3v3c0 1.5-.6 2.3-2 2.3h-3.5c-1.3 0-2-.8-2-2.3v-15.9h-2.6v15.9c0 3.1 1.6 4.6 4.7 4.6h3.5c3.1 0 4.6-1.5 4.6-4.6v-3c-.1-2.9-.9-4.6-2.5-5.1"/></g><circle cx="196.6" cy="200" fill="none" r="175" stroke="#56c3e9" stroke-miterlimit="10" stroke-width=".16"/><path d="m196.6 14.9c-102.2 0-185.1 82.9-185.1 185.1s82.9 185.1 185.1 185.1 185.1-82.9 185.1-185.1-82.8-185.1-185.1-185.1m0 360.1c-96.6 0-175-78.3-175-175 0-96.6 78.3-175 175-175 96.6 0 175 78.3 175 175 0 96.6-78.3 175-175 175" fill="#231f20"/></svg>